<svg width="750" height="500" viewBox="0 0 750 500" fill="none" xmlns="http://www.w3.org/2000/svg">
<g clip-path="url(#clip0_6_6)">
<mask id="mask0_6_6" style="mask-type:luminance" maskUnits="userSpaceOnUse" x="-6" y="1" width="750" height="500">
<path d="M744 1H-6V501H744V1Z" fill="white"/>
</mask>
<g mask="url(#mask0_6_6)">
<path d="M724.264 339.187L692.932 394.801H757.162L724.264 339.187Z" stroke="#DBDBDB" stroke-width="4" stroke-miterlimit="10"/>
</g>
<mask id="mask1_6_6" style="mask-type:luminance" maskUnits="userSpaceOnUse" x="-6" y="1" width="750" height="500">
<path d="M744 1H-6V501H744V1Z" fill="white"/>
</mask>
<g mask="url(#mask1_6_6)">
<path d="M154.018 -10.963L117.007 54.732H192.88L154.018 -10.963Z" stroke="#DBDBDB" stroke-width="4" stroke-miterlimit="10"/>
</g>
<mask id="mask2_6_6" style="mask-type:luminance" maskUnits="userSpaceOnUse" x="-6" y="1" width="750" height="500">
<path d="M744 1H-6V501H744V1Z" fill="white"/>
</mask>
<g mask="url(#mask2_6_6)">
<path d="M634.846 178.235L597.45 243.931H674.112L634.846 178.235Z" stroke="#DBDBDB" stroke-width="4" stroke-miterlimit="10"/>
</g>
<mask id="mask3_6_6" style="mask-type:luminance" maskUnits="userSpaceOnUse" x="-6" y="1" width="750" height="500">
<path d="M744 1H-6V501H744V1Z" fill="white"/>
</mask>
<g mask="url(#mask3_6_6)">
<path d="M697.729 144.328C699.904 130.923 690.802 118.293 677.397 116.118C663.993 113.942 651.363 123.045 649.187 136.45C647.012 149.854 656.115 162.484 669.519 164.659C682.924 166.835 695.554 157.732 697.729 144.328Z" fill="#DBDBDB"/>
</g>
<mask id="mask4_6_6" style="mask-type:luminance" maskUnits="userSpaceOnUse" x="-6" y="1" width="750" height="500">
<path d="M744 1H-6V501H744V1Z" fill="white"/>
</mask>
<g mask="url(#mask4_6_6)">
<path d="M735.88 463.62L724.384 452.09L713.494 463.013L702.805 452.292L697.356 457.758L687.279 447.711L702.805 432.139L713.494 442.86L724.384 431.936L735.88 443.467L747.78 431.532L764.314 448.116L754.237 458.162L747.78 451.685L735.88 463.62Z" fill="#DBDBDB"/>
</g>
<mask id="mask5_6_6" style="mask-type:luminance" maskUnits="userSpaceOnUse" x="-6" y="1" width="750" height="500">
<path d="M744 1H-6V501H744V1Z" fill="white"/>
</mask>
<g mask="url(#mask5_6_6)">
<path d="M45.912 103.847C45.06 82.785 27.775 65.969 6.56699 65.969C-14.641 65.969 -31.926 82.784 -32.778 103.847H45.912Z" fill="#DBDBDB"/>
</g>
<mask id="mask6_6_6" style="mask-type:luminance" maskUnits="userSpaceOnUse" x="-6" y="1" width="750" height="500">
<path d="M744 1H-6V501H744V1Z" fill="white"/>
</mask>
<g mask="url(#mask6_6_6)">
<path d="M612.963 470.048C620.121 467.084 623.519 458.878 620.555 451.721C617.59 444.563 609.384 441.164 602.227 444.129C595.07 447.094 591.671 455.299 594.636 462.457C597.6 469.614 605.806 473.013 612.963 470.048Z" fill="#DBDBDB"/>
</g>
<mask id="mask7_6_6" style="mask-type:luminance" maskUnits="userSpaceOnUse" x="-6" y="1" width="750" height="500">
<path d="M744 1H-6V501H744V1Z" fill="white"/>
</mask>
<g mask="url(#mask7_6_6)">
<path d="M694.851 133.921C696.778 122.049 688.716 110.863 676.845 108.936C664.974 107.01 653.788 115.072 651.861 126.944C649.935 138.816 657.996 150.002 669.868 151.928C681.739 153.855 692.925 145.793 694.851 133.921Z" fill="#42004C"/>
</g>
<mask id="mask8_6_6" style="mask-type:luminance" maskUnits="userSpaceOnUse" x="-6" y="1" width="750" height="500">
<path d="M744 1H-6V501H744V1Z" fill="white"/>
</mask>
<g mask="url(#mask8_6_6)">
<path d="M98.9377 223.74C116.254 221.624 128.576 205.87 126.46 188.553C124.344 171.236 108.591 158.913 91.2742 161.029C73.9577 163.146 61.6355 178.899 63.7517 196.216C65.8679 213.533 81.6212 225.856 98.9377 223.74Z" fill="#DBDBDB"/>
</g>
<mask id="mask9_6_6" style="mask-type:luminance" maskUnits="userSpaceOnUse" x="-6" y="1" width="750" height="500">
<path d="M744 1H-6V501H744V1Z" fill="white"/>
</mask>
<g mask="url(#mask9_6_6)">
<path d="M31.3513 392.015C43.33 389.215 50.7711 377.235 47.9714 365.256C45.1716 353.277 33.1913 345.836 21.2126 348.636C9.23383 351.436 1.79275 363.416 4.59247 375.395C7.39219 387.374 19.3725 394.815 31.3513 392.015Z" stroke="#DBDBDB" stroke-width="4" stroke-miterlimit="10"/>
</g>
<mask id="mask10_6_6" style="mask-type:luminance" maskUnits="userSpaceOnUse" x="-6" y="1" width="750" height="500">
<path d="M744 1H-6V501H744V1Z" fill="white"/>
</mask>
<g mask="url(#mask10_6_6)">
<path d="M752.237 184.438C763.602 179.73 768.999 166.701 764.291 155.336C759.584 143.971 746.554 138.574 735.189 143.282C723.824 147.989 718.428 161.019 723.135 172.384C727.843 183.749 740.872 189.145 752.237 184.438Z" stroke="#DBDBDB" stroke-width="4" stroke-miterlimit="10"/>
</g>
<mask id="mask11_6_6" style="mask-type:luminance" maskUnits="userSpaceOnUse" x="-6" y="1" width="750" height="500">
<path d="M744 1H-6V501H744V1Z" fill="white"/>
</mask>
<g mask="url(#mask11_6_6)">
<path d="M23.622 114.277C23.129 102.104 13.14 92.386 0.882982 92.386C-11.374 92.386 -21.364 102.104 -21.856 114.277H23.622Z" fill="#FFB624"/>
</g>
<mask id="mask12_6_6" style="mask-type:luminance" maskUnits="userSpaceOnUse" x="-6" y="1" width="750" height="500">
<path d="M744 1H-6V501H744V1Z" fill="white"/>
</mask>
<g mask="url(#mask12_6_6)">
<path d="M695.255 -24.814C680.106 -24.202 668.012 -11.769 668.012 3.48403C668.012 18.738 680.106 31.17 695.255 31.782V-24.814Z" stroke="#42004C" stroke-miterlimit="10"/>
</g>
<mask id="mask13_6_6" style="mask-type:luminance" maskUnits="userSpaceOnUse" x="-6" y="1" width="750" height="500">
<path d="M744 1H-6V501H744V1Z" fill="white"/>
</mask>
<g mask="url(#mask13_6_6)">
<path d="M702.757 -24.814C687.608 -24.202 675.514 -11.769 675.514 3.48403C675.514 18.738 687.608 31.17 702.757 31.782V-24.814Z" stroke="#42004C" stroke-miterlimit="10"/>
</g>
<mask id="mask14_6_6" style="mask-type:luminance" maskUnits="userSpaceOnUse" x="-6" y="1" width="750" height="500">
<path d="M744 1H-6V501H744V1Z" fill="white"/>
</mask>
<g mask="url(#mask14_6_6)">
<path d="M710.259 -24.814C695.11 -24.202 683.016 -11.769 683.016 3.48403C683.016 18.738 695.11 31.17 710.259 31.782V-24.814Z" stroke="#42004C" stroke-miterlimit="10"/>
</g>
<mask id="mask15_6_6" style="mask-type:luminance" maskUnits="userSpaceOnUse" x="-6" y="1" width="750" height="500">
<path d="M744 1H-6V501H744V1Z" fill="white"/>
</mask>
<g mask="url(#mask15_6_6)">
<path d="M731.515 460.913L720.02 449.382L709.129 460.306L698.44 449.585L690.026 458.023L685.877 453.886L698.44 441.286L709.129 452.008L720.02 441.084L731.515 452.615L743.414 440.679L756.984 454.291L752.835 458.427L743.414 448.978L731.515 460.913Z" fill="#42004C"/>
</g>
<mask id="mask16_6_6" style="mask-type:luminance" maskUnits="userSpaceOnUse" x="-6" y="1" width="750" height="500">
<path d="M744 1H-6V501H744V1Z" fill="white"/>
</mask>
<g mask="url(#mask16_6_6)">
<path d="M391.504 495.979V444.116H443.367L391.504 495.979Z" fill="#DBDBDB"/>
<mask id="mask17_6_6" style="mask-type:luminance" maskUnits="userSpaceOnUse" x="397" y="429" width="53" height="53">
<path d="M397.616 481.718V429.855H449.479L397.616 481.718Z" fill="white"/>
</mask>
<g mask="url(#mask17_6_6)">
<path d="M485.927 415.319L383.399 517.847L384.875 519.322L487.402 416.795L485.927 415.319Z" fill="#FFB624"/>
</g>
<mask id="mask18_6_6" style="mask-type:luminance" maskUnits="userSpaceOnUse" x="397" y="429" width="53" height="53">
<path d="M397.616 481.718V429.855H449.479L397.616 481.718Z" fill="white"/>
</mask>
<g mask="url(#mask18_6_6)">
<path d="M481.471 410.863L378.943 513.391L380.419 514.866L482.946 412.339L481.471 410.863Z" fill="#FFB624"/>
</g>
<mask id="mask19_6_6" style="mask-type:luminance" maskUnits="userSpaceOnUse" x="397" y="429" width="53" height="53">
<path d="M397.616 481.718V429.855H449.479L397.616 481.718Z" fill="white"/>
</mask>
<g mask="url(#mask19_6_6)">
<path d="M477.014 406.45L374.486 508.977L375.962 510.453L478.489 407.926L477.014 406.45Z" fill="#FFB624"/>
</g>
<mask id="mask20_6_6" style="mask-type:luminance" maskUnits="userSpaceOnUse" x="397" y="429" width="53" height="53">
<path d="M397.616 481.718V429.855H449.479L397.616 481.718Z" fill="white"/>
</mask>
<g mask="url(#mask20_6_6)">
<path d="M472.558 401.972L370.03 504.499L371.506 505.975L474.033 403.447L472.558 401.972Z" fill="#42004C"/>
</g>
<mask id="mask21_6_6" style="mask-type:luminance" maskUnits="userSpaceOnUse" x="397" y="429" width="53" height="53">
<path d="M397.616 481.718V429.855H449.479L397.616 481.718Z" fill="white"/>
</mask>
<g mask="url(#mask21_6_6)">
<path d="M468.101 397.537L365.573 500.064L367.049 501.54L469.576 399.013L468.101 397.537Z" fill="#42004C"/>
</g>
<mask id="mask22_6_6" style="mask-type:luminance" maskUnits="userSpaceOnUse" x="397" y="429" width="53" height="53">
<path d="M397.616 481.718V429.855H449.479L397.616 481.718Z" fill="white"/>
</mask>
<g mask="url(#mask22_6_6)">
<path d="M463.645 393.081L361.117 495.608L362.593 497.084L465.12 394.556L463.645 393.081Z" fill="#42004C"/>
</g>
<mask id="mask23_6_6" style="mask-type:luminance" maskUnits="userSpaceOnUse" x="397" y="429" width="53" height="53">
<path d="M397.616 481.718V429.855H449.479L397.616 481.718Z" fill="white"/>
</mask>
<g mask="url(#mask23_6_6)">
<path d="M459.19 388.599L356.662 491.126L358.138 492.602L460.665 390.075L459.19 388.599Z" fill="#42004C"/>
</g>
<mask id="mask24_6_6" style="mask-type:luminance" maskUnits="userSpaceOnUse" x="397" y="429" width="53" height="53">
<path d="M397.616 481.718V429.855H449.479L397.616 481.718Z" fill="white"/>
</mask>
<g mask="url(#mask24_6_6)">
<path d="M454.734 384.148L352.206 486.675L353.683 488.151L456.21 385.624L454.734 384.148Z" fill="#42004C"/>
</g>
<mask id="mask25_6_6" style="mask-type:luminance" maskUnits="userSpaceOnUse" x="397" y="429" width="53" height="53">
<path d="M397.616 481.718V429.855H449.479L397.616 481.718Z" fill="white"/>
</mask>
<g mask="url(#mask25_6_6)">
<path d="M450.278 379.671L347.75 482.198L349.226 483.674L451.753 381.146L450.278 379.671Z" fill="#42004C"/>
</g>
<mask id="mask26_6_6" style="mask-type:luminance" maskUnits="userSpaceOnUse" x="397" y="429" width="53" height="53">
<path d="M397.616 481.718V429.855H449.479L397.616 481.718Z" fill="white"/>
</mask>
<g mask="url(#mask26_6_6)">
<path d="M445.82 375.255L343.293 477.782L344.768 479.258L447.296 376.731L445.82 375.255Z" fill="#FFB624"/>
</g>
<mask id="mask27_6_6" style="mask-type:luminance" maskUnits="userSpaceOnUse" x="397" y="429" width="53" height="53">
<path d="M397.616 481.718V429.855H449.479L397.616 481.718Z" fill="white"/>
</mask>
<g mask="url(#mask27_6_6)">
<path d="M441.364 370.799L338.837 473.326L340.313 474.802L442.84 372.274L441.364 370.799Z" fill="#FFB624"/>
</g>
<mask id="mask28_6_6" style="mask-type:luminance" maskUnits="userSpaceOnUse" x="397" y="429" width="53" height="53">
<path d="M397.616 481.718V429.855H449.479L397.616 481.718Z" fill="white"/>
</mask>
<g mask="url(#mask28_6_6)">
<path d="M436.908 366.342L334.381 468.869L335.857 470.345L438.384 367.818L436.908 366.342Z" fill="#FFB624"/>
</g>
</g>
<mask id="mask29_6_6" style="mask-type:luminance" maskUnits="userSpaceOnUse" x="-6" y="1" width="750" height="500">
<path d="M744 1H-6V501H744V1Z" fill="white"/>
</mask>
<g mask="url(#mask29_6_6)">
<path d="M602.221 311.966C587.519 311.966 575.559 300.005 575.559 285.304H587.489C587.489 293.428 594.098 300.037 602.222 300.037C610.345 300.037 616.954 293.428 616.954 285.304H628.884C628.883 300.006 616.923 311.966 602.221 311.966Z" fill="#DBDBDB"/>
<path d="M596.252 302.56C583.292 302.56 572.748 292.016 572.748 279.056H578.362C578.362 288.921 586.388 296.946 596.252 296.946C606.116 296.946 614.142 288.92 614.142 279.056H619.756C619.756 292.017 609.212 302.56 596.252 302.56Z" fill="#42004C"/>
</g>
<mask id="mask30_6_6" style="mask-type:luminance" maskUnits="userSpaceOnUse" x="-6" y="1" width="750" height="500">
<path d="M744 1H-6V501H744V1Z" fill="white"/>
</mask>
<g mask="url(#mask30_6_6)">
<path d="M92.344 295.244C91.49 295.244 90.797 294.553 90.797 293.701C90.797 292.849 91.49 292.158 92.344 292.158C93.198 292.158 93.891 292.849 93.891 293.701C93.891 294.553 93.198 295.244 92.344 295.244Z" fill="#FFB624"/>
<path d="M74.799 295.244C73.945 295.244 73.252 294.553 73.252 293.701C73.252 292.849 73.945 292.158 74.799 292.158C75.653 292.158 76.346 292.849 76.346 293.701C76.346 294.553 75.653 295.244 74.799 295.244Z" fill="#FFB624"/>
<path d="M57.253 295.244C56.398 295.244 55.706 294.553 55.706 293.701C55.706 292.849 56.399 292.158 57.253 292.158C58.108 292.158 58.8 292.849 58.8 293.701C58.8 294.553 58.108 295.244 57.253 295.244Z" fill="#FFB624"/>
<path d="M39.708 295.244C38.854 295.244 38.161 294.553 38.161 293.701C38.161 292.849 38.854 292.158 39.708 292.158C40.562 292.158 41.255 292.849 41.255 293.701C41.255 294.553 40.562 295.244 39.708 295.244Z" fill="#FFB624"/>
<path d="M92.344 314.34C91.49 314.34 90.797 313.649 90.797 312.797C90.797 311.945 91.49 311.254 92.344 311.254C93.198 311.254 93.891 311.945 93.891 312.797C93.891 313.649 93.198 314.34 92.344 314.34Z" fill="#FFB624"/>
<path d="M74.799 314.34C73.945 314.34 73.252 313.649 73.252 312.797C73.252 311.945 73.945 311.254 74.799 311.254C75.653 311.254 76.346 311.945 76.346 312.797C76.346 313.649 75.653 314.34 74.799 314.34Z" fill="#FFB624"/>
<path d="M57.253 314.34C56.398 314.34 55.706 313.649 55.706 312.797C55.706 311.945 56.399 311.254 57.253 311.254C58.108 311.254 58.8 311.945 58.8 312.797C58.8 313.649 58.108 314.34 57.253 314.34Z" fill="#FFB624"/>
<path d="M39.708 314.34C38.854 314.34 38.161 313.649 38.161 312.797C38.161 311.945 38.854 311.254 39.708 311.254C40.562 311.254 41.255 311.945 41.255 312.797C41.255 313.649 40.562 314.34 39.708 314.34Z" fill="#FFB624"/>
<path d="M92.344 333.436C91.49 333.436 90.797 332.745 90.797 331.893C90.797 331.041 91.49 330.35 92.344 330.35C93.198 330.35 93.891 331.041 93.891 331.893C93.891 332.745 93.198 333.436 92.344 333.436Z" fill="#FFB624"/>
<path d="M74.799 333.436C73.945 333.436 73.252 332.745 73.252 331.893C73.252 331.041 73.945 330.35 74.799 330.35C75.653 330.35 76.346 331.041 76.346 331.893C76.346 332.745 75.653 333.436 74.799 333.436Z" fill="#FFB624"/>
<path d="M57.253 333.436C56.398 333.436 55.706 332.745 55.706 331.893C55.706 331.041 56.399 330.35 57.253 330.35C58.108 330.35 58.8 331.041 58.8 331.893C58.8 332.745 58.108 333.436 57.253 333.436Z" fill="#FFB624"/>
<path d="M39.708 333.436C38.854 333.436 38.161 332.745 38.161 331.893C38.161 331.041 38.854 330.35 39.708 330.35C40.562 330.35 41.255 331.041 41.255 331.893C41.255 332.745 40.562 333.436 39.708 333.436Z" fill="#FFB624"/>
<path d="M92.344 352.531C91.49 352.531 90.797 351.84 90.797 350.988C90.797 350.136 91.49 349.445 92.344 349.445C93.198 349.445 93.891 350.136 93.891 350.988C93.891 351.841 93.198 352.531 92.344 352.531Z" fill="#FFB624"/>
<path d="M74.799 352.531C73.945 352.531 73.252 351.84 73.252 350.988C73.252 350.136 73.945 349.445 74.799 349.445C75.653 349.445 76.346 350.136 76.346 350.988C76.346 351.841 75.653 352.531 74.799 352.531Z" fill="#FFB624"/>
<path d="M57.253 352.531C56.398 352.531 55.706 351.84 55.706 350.988C55.706 350.136 56.399 349.445 57.253 349.445C58.108 349.445 58.8 350.136 58.8 350.988C58.8 351.841 58.108 352.531 57.253 352.531Z" fill="#FFB624"/>
<path d="M39.708 352.531C38.854 352.531 38.161 351.84 38.161 350.988C38.161 350.136 38.854 349.445 39.708 349.445C40.562 349.445 41.255 350.136 41.255 350.988C41.255 351.841 40.562 352.531 39.708 352.531Z" fill="#FFB624"/>
<path d="M92.344 304.654C91.49 304.654 90.797 303.963 90.797 303.111C90.797 302.259 91.49 301.568 92.344 301.568C93.198 301.568 93.891 302.259 93.891 303.111C93.891 303.963 93.198 304.654 92.344 304.654Z" fill="#FFB624"/>
<path d="M74.799 304.654C73.945 304.654 73.252 303.963 73.252 303.111C73.252 302.259 73.945 301.568 74.799 301.568C75.653 301.568 76.346 302.259 76.346 303.111C76.346 303.963 75.653 304.654 74.799 304.654Z" fill="#FFB624"/>
<path d="M57.253 304.654C56.398 304.654 55.706 303.963 55.706 303.111C55.706 302.259 56.399 301.568 57.253 301.568C58.108 301.568 58.8 302.259 58.8 303.111C58.8 303.963 58.108 304.654 57.253 304.654Z" fill="#FFB624"/>
<path d="M39.708 304.654C38.854 304.654 38.161 303.963 38.161 303.111C38.161 302.259 38.854 301.568 39.708 301.568C40.562 301.568 41.255 302.259 41.255 303.111C41.255 303.963 40.562 304.654 39.708 304.654Z" fill="#FFB624"/>
<path d="M92.344 323.75C91.49 323.75 90.797 323.059 90.797 322.207C90.797 321.355 91.49 320.664 92.344 320.664C93.198 320.664 93.891 321.355 93.891 322.207C93.891 323.059 93.198 323.75 92.344 323.75Z" fill="#FFB624"/>
<path d="M74.799 323.75C73.945 323.75 73.252 323.059 73.252 322.207C73.252 321.355 73.945 320.664 74.799 320.664C75.653 320.664 76.346 321.355 76.346 322.207C76.346 323.059 75.653 323.75 74.799 323.75Z" fill="#FFB624"/>
<path d="M57.253 323.75C56.398 323.75 55.706 323.059 55.706 322.207C55.706 321.355 56.399 320.664 57.253 320.664C58.108 320.664 58.8 321.355 58.8 322.207C58.8 323.059 58.108 323.75 57.253 323.75Z" fill="#FFB624"/>
<path d="M39.708 323.75C38.854 323.75 38.161 323.059 38.161 322.207C38.161 321.355 38.854 320.664 39.708 320.664C40.562 320.664 41.255 321.355 41.255 322.207C41.255 323.059 40.562 323.75 39.708 323.75Z" fill="#FFB624"/>
<path d="M92.344 342.845C91.49 342.845 90.797 342.154 90.797 341.302C90.797 340.45 91.49 339.759 92.344 339.759C93.198 339.759 93.891 340.45 93.891 341.302C93.891 342.155 93.198 342.845 92.344 342.845Z" fill="#FFB624"/>
<path d="M74.799 342.845C73.945 342.845 73.252 342.154 73.252 341.302C73.252 340.45 73.945 339.759 74.799 339.759C75.653 339.759 76.346 340.45 76.346 341.302C76.346 342.155 75.653 342.845 74.799 342.845Z" fill="#FFB624"/>
<path d="M57.253 342.845C56.398 342.845 55.706 342.154 55.706 341.302C55.706 340.45 56.399 339.759 57.253 339.759C58.108 339.759 58.8 340.45 58.8 341.302C58.8 342.155 58.108 342.845 57.253 342.845Z" fill="#FFB624"/>
<path d="M39.708 342.845C38.854 342.845 38.161 342.154 38.161 341.302C38.161 340.45 38.854 339.759 39.708 339.759C40.562 339.759 41.255 340.45 41.255 341.302C41.255 342.155 40.562 342.845 39.708 342.845Z" fill="#FFB624"/>
<path d="M92.344 361.941C91.49 361.941 90.797 361.25 90.797 360.398C90.797 359.546 91.49 358.855 92.344 358.855C93.198 358.855 93.891 359.546 93.891 360.398C93.891 361.251 93.198 361.941 92.344 361.941Z" fill="#FFB624"/>
<path d="M74.799 361.941C73.945 361.941 73.252 361.25 73.252 360.398C73.252 359.546 73.945 358.855 74.799 358.855C75.653 358.855 76.346 359.546 76.346 360.398C76.346 361.251 75.653 361.941 74.799 361.941Z" fill="#FFB624"/>
<path d="M57.253 361.941C56.398 361.941 55.706 361.25 55.706 360.398C55.706 359.546 56.399 358.855 57.253 358.855C58.108 358.855 58.8 359.546 58.8 360.398C58.8 361.251 58.108 361.941 57.253 361.941Z" fill="#FFB624"/>
<path d="M39.708 361.941C38.854 361.941 38.161 361.25 38.161 360.398C38.161 359.546 38.854 358.855 39.708 358.855C40.562 358.855 41.255 359.546 41.255 360.398C41.255 361.251 40.562 361.941 39.708 361.941Z" fill="#FFB624"/>
<path d="M101.458 295.244C100.604 295.244 99.911 294.553 99.911 293.701C99.911 292.849 100.604 292.158 101.458 292.158C102.312 292.158 103.005 292.849 103.005 293.701C103.005 294.553 102.312 295.244 101.458 295.244Z" fill="#FFB624"/>
<path d="M83.912 295.244C83.058 295.244 82.365 294.553 82.365 293.701C82.365 292.849 83.058 292.158 83.912 292.158C84.766 292.158 85.459 292.849 85.459 293.701C85.46 294.553 84.767 295.244 83.912 295.244Z" fill="#FFB624"/>
<path d="M66.367 295.244C65.512 295.244 64.82 294.553 64.82 293.701C64.82 292.849 65.513 292.158 66.367 292.158C67.221 292.158 67.914 292.849 67.914 293.701C67.914 294.553 67.222 295.244 66.367 295.244Z" fill="#FFB624"/>
<path d="M48.822 295.244C47.968 295.244 47.275 294.553 47.275 293.701C47.275 292.849 47.968 292.158 48.822 292.158C49.677 292.158 50.369 292.849 50.369 293.701C50.369 294.553 49.676 295.244 48.822 295.244Z" fill="#FFB624"/>
<path d="M31.276 295.244C30.422 295.244 29.729 294.553 29.729 293.701C29.729 292.849 30.422 292.158 31.276 292.158C32.131 292.158 32.823 292.849 32.823 293.701C32.824 294.553 32.131 295.244 31.276 295.244Z" fill="#FFB624"/>
<path d="M101.458 314.34C100.604 314.34 99.911 313.649 99.911 312.797C99.911 311.945 100.604 311.254 101.458 311.254C102.312 311.254 103.005 311.945 103.005 312.797C103.005 313.649 102.312 314.34 101.458 314.34Z" fill="#FFB624"/>
<path d="M83.912 314.34C83.058 314.34 82.365 313.649 82.365 312.797C82.365 311.945 83.058 311.254 83.912 311.254C84.766 311.254 85.459 311.945 85.459 312.797C85.46 313.649 84.767 314.34 83.912 314.34Z" fill="#FFB624"/>
<path d="M66.367 314.34C65.512 314.34 64.82 313.649 64.82 312.797C64.82 311.945 65.513 311.254 66.367 311.254C67.221 311.254 67.914 311.945 67.914 312.797C67.914 313.649 67.222 314.34 66.367 314.34Z" fill="#FFB624"/>
<path d="M48.822 314.34C47.968 314.34 47.275 313.649 47.275 312.797C47.275 311.945 47.968 311.254 48.822 311.254C49.677 311.254 50.369 311.945 50.369 312.797C50.369 313.649 49.676 314.34 48.822 314.34Z" fill="#FFB624"/>
<path d="M31.276 314.34C30.422 314.34 29.729 313.649 29.729 312.797C29.729 311.945 30.422 311.254 31.276 311.254C32.131 311.254 32.823 311.945 32.823 312.797C32.824 313.649 32.131 314.34 31.276 314.34Z" fill="#FFB624"/>
<path d="M101.458 333.436C100.604 333.436 99.911 332.745 99.911 331.893C99.911 331.041 100.604 330.35 101.458 330.35C102.312 330.35 103.005 331.041 103.005 331.893C103.005 332.745 102.312 333.436 101.458 333.436Z" fill="#FFB624"/>
<path d="M83.912 333.436C83.058 333.436 82.365 332.745 82.365 331.893C82.365 331.041 83.058 330.35 83.912 330.35C84.766 330.35 85.459 331.041 85.459 331.893C85.46 332.745 84.767 333.436 83.912 333.436Z" fill="#FFB624"/>
<path d="M66.367 333.436C67.2214 333.436 67.914 332.745 67.914 331.893C67.914 331.041 67.2214 330.35 66.367 330.35C65.5126 330.35 64.82 331.041 64.82 331.893C64.82 332.745 65.5126 333.436 66.367 333.436Z" fill="#FFB624"/>
<path d="M48.822 333.436C49.6764 333.436 50.369 332.745 50.369 331.893C50.369 331.041 49.6764 330.35 48.822 330.35C47.9676 330.35 47.275 331.041 47.275 331.893C47.275 332.745 47.9676 333.436 48.822 333.436Z" fill="#FFB624"/>
<path d="M31.276 333.436C30.422 333.436 29.729 332.745 29.729 331.893C29.729 331.041 30.422 330.35 31.276 330.35C32.131 330.35 32.823 331.041 32.823 331.893C32.824 332.745 32.131 333.436 31.276 333.436Z" fill="#FFB624"/>
<path d="M101.458 352.531C100.604 352.531 99.911 351.84 99.911 350.988C99.911 350.136 100.604 349.445 101.458 349.445C102.312 349.445 103.005 350.136 103.005 350.988C103.005 351.841 102.312 352.531 101.458 352.531Z" fill="#FFB624"/>
<path d="M83.912 352.531C83.058 352.531 82.365 351.84 82.365 350.988C82.365 350.136 83.058 349.445 83.912 349.445C84.766 349.445 85.459 350.136 85.459 350.988C85.46 351.841 84.767 352.531 83.912 352.531Z" fill="#FFB624"/>
<path d="M66.367 352.531C65.512 352.531 64.82 351.84 64.82 350.988C64.82 350.136 65.513 349.445 66.367 349.445C67.221 349.445 67.914 350.136 67.914 350.988C67.914 351.841 67.222 352.531 66.367 352.531Z" fill="#FFB624"/>
<path d="M48.822 352.531C47.968 352.531 47.275 351.84 47.275 350.988C47.275 350.136 47.968 349.445 48.822 349.445C49.677 349.445 50.369 350.136 50.369 350.988C50.369 351.841 49.676 352.531 48.822 352.531Z" fill="#FFB624"/>
<path d="M31.276 352.531C30.422 352.531 29.729 351.84 29.729 350.988C29.729 350.136 30.422 349.445 31.276 349.445C32.131 349.445 32.823 350.136 32.823 350.988C32.824 351.841 32.131 352.531 31.276 352.531Z" fill="#FFB624"/>
<path d="M101.458 304.654C100.604 304.654 99.911 303.963 99.911 303.111C99.911 302.259 100.604 301.568 101.458 301.568C102.312 301.568 103.005 302.259 103.005 303.111C103.005 303.963 102.312 304.654 101.458 304.654Z" fill="#FFB624"/>
<path d="M83.912 304.654C83.058 304.654 82.365 303.963 82.365 303.111C82.365 302.259 83.058 301.568 83.912 301.568C84.766 301.568 85.459 302.259 85.459 303.111C85.46 303.963 84.767 304.654 83.912 304.654Z" fill="#FFB624"/>
<path d="M66.367 304.654C67.2214 304.654 67.914 303.963 67.914 303.111C67.914 302.259 67.2214 301.568 66.367 301.568C65.5126 301.568 64.82 302.259 64.82 303.111C64.82 303.963 65.5126 304.654 66.367 304.654Z" fill="#FFB624"/>
<path d="M48.822 304.654C49.6764 304.654 50.369 303.963 50.369 303.111C50.369 302.259 49.6764 301.568 48.822 301.568C47.9676 301.568 47.275 302.259 47.275 303.111C47.275 303.963 47.9676 304.654 48.822 304.654Z" fill="#FFB624"/>
<path d="M31.276 304.654C30.422 304.654 29.729 303.963 29.729 303.111C29.729 302.259 30.422 301.568 31.276 301.568C32.131 301.568 32.823 302.259 32.823 303.111C32.824 303.963 32.131 304.654 31.276 304.654Z" fill="#FFB624"/>
<path d="M101.458 323.75C100.604 323.75 99.911 323.059 99.911 322.207C99.911 321.355 100.604 320.664 101.458 320.664C102.312 320.664 103.005 321.355 103.005 322.207C103.005 323.059 102.312 323.75 101.458 323.75Z" fill="#FFB624"/>
<path d="M83.912 323.75C83.058 323.75 82.365 323.059 82.365 322.207C82.365 321.355 83.058 320.664 83.912 320.664C84.766 320.664 85.459 321.355 85.459 322.207C85.46 323.059 84.767 323.75 83.912 323.75Z" fill="#FFB624"/>
<path d="M66.367 323.75C65.512 323.75 64.82 323.059 64.82 322.207C64.82 321.355 65.513 320.664 66.367 320.664C67.221 320.664 67.914 321.355 67.914 322.207C67.914 323.059 67.222 323.75 66.367 323.75Z" fill="#FFB624"/>
<path d="M48.822 323.75C47.968 323.75 47.275 323.059 47.275 322.207C47.275 321.355 47.968 320.664 48.822 320.664C49.677 320.664 50.369 321.355 50.369 322.207C50.369 323.059 49.676 323.75 48.822 323.75Z" fill="#FFB624"/>
<path d="M31.276 323.75C30.422 323.75 29.729 323.059 29.729 322.207C29.729 321.355 30.422 320.664 31.276 320.664C32.131 320.664 32.823 321.355 32.823 322.207C32.824 323.059 32.131 323.75 31.276 323.75Z" fill="#FFB624"/>
<path d="M101.458 342.845C100.604 342.845 99.911 342.154 99.911 341.302C99.911 340.45 100.604 339.759 101.458 339.759C102.312 339.759 103.005 340.45 103.005 341.302C103.005 342.155 102.312 342.845 101.458 342.845Z" fill="#FFB624"/>
<path d="M83.912 342.845C83.058 342.845 82.365 342.154 82.365 341.302C82.365 340.45 83.058 339.759 83.912 339.759C84.766 339.759 85.459 340.45 85.459 341.302C85.46 342.155 84.767 342.845 83.912 342.845Z" fill="#FFB624"/>
<path d="M66.367 342.846C67.2214 342.846 67.914 342.155 67.914 341.303C67.914 340.451 67.2214 339.76 66.367 339.76C65.5126 339.76 64.82 340.451 64.82 341.303C64.82 342.155 65.5126 342.846 66.367 342.846Z" fill="#FFB624"/>
<path d="M48.822 342.846C49.6764 342.846 50.369 342.155 50.369 341.303C50.369 340.451 49.6764 339.76 48.822 339.76C47.9676 339.76 47.275 340.451 47.275 341.303C47.275 342.155 47.9676 342.846 48.822 342.846Z" fill="#FFB624"/>
<path d="M31.276 342.845C30.422 342.845 29.729 342.154 29.729 341.302C29.729 340.45 30.422 339.759 31.276 339.759C32.131 339.759 32.823 340.45 32.823 341.302C32.824 342.155 32.131 342.845 31.276 342.845Z" fill="#FFB624"/>
<path d="M101.458 361.941C100.604 361.941 99.911 361.25 99.911 360.398C99.911 359.546 100.604 358.855 101.458 358.855C102.312 358.855 103.005 359.546 103.005 360.398C103.005 361.251 102.312 361.941 101.458 361.941Z" fill="#FFB624"/>
<path d="M83.912 361.941C83.058 361.941 82.365 361.25 82.365 360.398C82.365 359.546 83.058 358.855 83.912 358.855C84.766 358.855 85.459 359.546 85.459 360.398C85.46 361.251 84.767 361.941 83.912 361.941Z" fill="#FFB624"/>
<path d="M66.367 361.941C65.512 361.941 64.82 361.25 64.82 360.398C64.82 359.546 65.513 358.855 66.367 358.855C67.221 358.855 67.914 359.546 67.914 360.398C67.914 361.251 67.222 361.941 66.367 361.941Z" fill="#FFB624"/>
<path d="M48.822 361.941C47.968 361.941 47.275 361.25 47.275 360.398C47.275 359.546 47.968 358.855 48.822 358.855C49.677 358.855 50.369 359.546 50.369 360.398C50.369 361.251 49.676 361.941 48.822 361.941Z" fill="#FFB624"/>
<path d="M31.276 361.941C30.422 361.941 29.729 361.25 29.729 360.398C29.729 359.546 30.422 358.855 31.276 358.855C32.131 358.855 32.823 359.546 32.823 360.398C32.824 361.251 32.131 361.941 31.276 361.941Z" fill="#FFB624"/>
<path d="M90.797 305.845V300.377C100.125 300.377 107.715 292.788 107.715 283.46C107.715 274.132 100.125 266.543 90.797 266.543V261.075C103.141 261.075 113.183 271.117 113.183 283.46C113.182 295.803 103.14 305.845 90.797 305.845Z" fill="#42004C"/>
</g>
<mask id="mask31_6_6" style="mask-type:luminance" maskUnits="userSpaceOnUse" x="-6" y="1" width="750" height="500">
<path d="M744 1H-6V501H744V1Z" fill="white"/>
</mask>
<g mask="url(#mask31_6_6)">
<path d="M644.942 231.486L640.087 236.327L654.762 251.048L659.618 246.208L644.942 231.486Z" fill="#FFB624"/>
<path d="M654.738 231.434L640.063 246.156L644.918 250.996L659.594 236.274L654.738 231.434Z" fill="#FFB624"/>
</g>
<mask id="mask32_6_6" style="mask-type:luminance" maskUnits="userSpaceOnUse" x="-6" y="1" width="750" height="500">
<path d="M744 1H-6V501H744V1Z" fill="white"/>
</mask>
<g mask="url(#mask32_6_6)">
<path d="M-3.78799 268.847C-24.829 268.847 -41.946 251.729 -41.946 230.689C-41.946 209.648 -24.829 192.531 -3.78799 192.531C17.253 192.531 34.37 209.649 34.37 230.689C34.371 251.729 17.253 268.847 -3.78799 268.847ZM-3.78799 195.033C-23.448 195.033 -39.443 211.028 -39.443 230.688C-39.443 250.349 -23.448 266.344 -3.78799 266.344C15.873 266.344 31.868 250.349 31.868 230.688C31.868 211.028 15.873 195.033 -3.78799 195.033Z" fill="#FFB624"/>
<path d="M-3.78797 262.747C-21.464 262.747 -35.845 248.366 -35.845 230.689C-35.845 213.013 -21.464 198.631 -3.78797 198.631C13.889 198.631 28.27 213.012 28.27 230.689C28.271 248.365 13.889 262.747 -3.78797 262.747ZM-3.78797 201.134C-20.085 201.134 -33.343 214.392 -33.343 230.689C-33.343 246.986 -20.085 260.244 -3.78797 260.244C12.509 260.244 25.767 246.985 25.767 230.689C25.768 214.392 12.509 201.134 -3.78797 201.134Z" fill="#FFB624"/>
<path d="M-3.78798 256.402C-17.966 256.402 -29.501 244.867 -29.501 230.689C-29.501 216.511 -17.966 204.975 -3.78798 204.975C10.391 204.975 21.926 216.51 21.926 230.689C21.926 244.867 10.391 256.402 -3.78798 256.402ZM-3.78798 207.478C-16.587 207.478 -26.999 217.89 -26.999 230.689C-26.999 243.488 -16.587 253.9 -3.78798 253.9C9.01102 253.9 19.423 243.488 19.423 230.689C19.424 217.89 9.01102 207.478 -3.78798 207.478Z" fill="#FFB624"/>
<path d="M-3.78796 249.814C-14.333 249.814 -22.913 241.234 -22.913 230.689C-22.913 220.144 -14.333 211.564 -3.78796 211.564C6.75804 211.564 15.338 220.144 15.338 230.689C15.338 241.234 6.75804 249.814 -3.78796 249.814ZM-3.78796 214.066C-12.954 214.066 -20.41 221.523 -20.41 230.688C-20.41 239.854 -12.953 247.31 -3.78796 247.31C5.37704 247.31 12.835 239.853 12.835 230.688C12.835 221.523 5.37804 214.066 -3.78796 214.066Z" fill="#FFB624"/>
<path d="M-3.78797 243.958C-11.104 243.958 -17.056 238.006 -17.056 230.689C-17.056 223.373 -11.104 217.42 -3.78797 217.42C3.52903 217.42 9.48103 223.372 9.48103 230.689C9.48203 238.005 3.52903 243.958 -3.78797 243.958ZM-3.78797 219.923C-9.72397 219.923 -14.554 224.752 -14.554 230.689C-14.554 236.626 -9.72497 241.455 -3.78797 241.455C2.14903 241.455 6.97903 236.625 6.97903 230.689C6.97903 224.752 2.14903 219.923 -3.78797 219.923Z" fill="#FFB624"/>
<path d="M3.60599 230.689C3.60599 234.772 0.295993 238.082 -3.78801 238.082C-7.87101 238.082 -11.182 234.772 -11.182 230.689C-11.182 226.605 -7.87201 223.295 -3.78801 223.295C0.295993 223.295 3.60599 226.605 3.60599 230.689Z" fill="#FFB624"/>
</g>
<mask id="mask33_6_6" style="mask-type:luminance" maskUnits="userSpaceOnUse" x="-6" y="1" width="750" height="500">
<path d="M744 1H-6V501H744V1Z" fill="white"/>
</mask>
<g mask="url(#mask33_6_6)">
<path d="M155.33 113.063L132.134 97.9651V128.16L155.33 113.063Z" fill="#42004C"/>
<path d="M124.969 142.07V84.056L169.537 113.063L124.969 142.07ZM126.427 86.743V139.383L166.867 113.063L126.427 86.743Z" fill="#FFB624"/>
<path d="M106.365 113.063L88.683 101.554V124.572L106.365 113.063Z" fill="#FFB624"/>
<path d="M90.973 113.063L73.291 101.554V124.572L90.973 113.063Z" fill="#FFB624"/>
</g>
<mask id="mask34_6_6" style="mask-type:luminance" maskUnits="userSpaceOnUse" x="-6" y="1" width="750" height="500">
<path d="M744 1H-6V501H744V1Z" fill="white"/>
</mask>
<g mask="url(#mask34_6_6)">
<path d="M186.201 79.178C181.892 79.178 178.386 75.672 178.386 71.363C178.386 68.468 179.967 65.937 182.312 64.586C179.968 63.236 178.386 60.704 178.386 57.809C178.386 54.914 179.967 52.383 182.312 51.032C179.968 49.682 178.386 47.15 178.386 44.255C178.386 41.36 179.967 38.829 182.312 37.478C179.968 36.127 178.386 33.595 178.386 30.701C178.386 27.806 179.967 25.275 182.312 23.924C179.968 22.574 178.386 20.042 178.386 17.147C178.386 14.252 179.967 11.72 182.312 10.37C179.968 9.01995 178.386 6.48795 178.386 3.59295C178.386 -0.716046 181.892 -4.22205 186.201 -4.22205V-2.32305C182.939 -2.32305 180.286 0.330954 180.286 3.59295C180.286 6.48195 182.368 8.89495 185.11 9.40795C185.466 9.35795 185.831 9.33195 186.201 9.33195H187.151V11.408H186.201C185.831 11.408 185.466 11.382 185.11 11.332C182.367 11.845 180.286 14.257 180.286 17.147C180.286 20.036 182.368 22.449 185.11 22.962C185.466 22.912 185.831 22.886 186.201 22.886H187.151V24.962H186.201C185.831 24.962 185.466 24.936 185.11 24.886C182.367 25.399 180.286 27.812 180.286 30.701C180.286 33.59 182.368 36.003 185.11 36.516C185.466 36.466 185.831 36.44 186.201 36.44H187.151V38.516H186.201C185.831 38.516 185.466 38.49 185.11 38.44C182.367 38.953 180.286 41.366 180.286 44.255C180.286 47.144 182.368 49.557 185.11 50.07C185.466 50.02 185.831 49.994 186.201 49.994H187.151V52.07H186.201C185.831 52.07 185.466 52.044 185.11 51.994C182.367 52.507 180.286 54.919 180.286 57.809C180.286 60.698 182.368 63.111 185.11 63.624C185.466 63.574 185.831 63.548 186.201 63.548H187.151V65.624H186.201C185.831 65.624 185.466 65.598 185.11 65.548C182.367 66.061 180.286 68.474 180.286 71.363C180.286 74.625 182.939 77.279 186.201 77.279V79.178Z" fill="#FFB624"/>
</g>
<mask id="mask35_6_6" style="mask-type:luminance" maskUnits="userSpaceOnUse" x="-6" y="1" width="750" height="500">
<path d="M744 1H-6V501H744V1Z" fill="white"/>
</mask>
<g mask="url(#mask35_6_6)">
<path d="M624.346 454.88C639.87 454.88 652.455 442.295 652.455 426.771C652.455 411.247 639.87 398.662 624.346 398.662C608.822 398.662 596.237 411.247 596.237 426.771C596.237 442.295 608.822 454.88 624.346 454.88Z" fill="#42004C"/>
</g>
<mask id="mask36_6_6" style="mask-type:luminance" maskUnits="userSpaceOnUse" x="-6" y="1" width="750" height="500">
<path d="M744 1H-6V501H744V1Z" fill="white"/>
</mask>
<g mask="url(#mask36_6_6)">
<path d="M703.065 162.758C703.065 165.238 701.71 167.407 699.701 168.565C701.71 169.722 703.065 171.892 703.065 174.372C703.065 176.852 701.709 179.022 699.701 180.179C701.709 181.336 703.065 183.506 703.065 185.986C703.065 188.466 701.71 190.636 699.701 191.793C701.71 192.951 703.065 195.121 703.065 197.6C703.065 200.08 701.71 202.25 699.701 203.407C701.71 204.565 703.065 206.735 703.065 209.215C703.065 211.695 701.709 213.865 699.701 215.022C701.709 216.179 703.065 218.349 703.065 220.829C703.065 224.522 700.061 227.526 696.368 227.526V225.898C699.163 225.898 701.437 223.624 701.437 220.829C701.437 218.353 699.652 216.285 697.302 215.846C696.997 215.889 696.684 215.911 696.368 215.911H695.554V214.132H696.368C696.684 214.132 696.997 214.154 697.302 214.197C699.652 213.758 701.437 211.69 701.437 209.214C701.437 206.738 699.654 204.671 697.304 204.231C696.998 204.274 696.686 204.296 696.368 204.296H695.554V202.516H696.368C696.686 202.516 696.998 202.538 697.304 202.581C699.653 202.141 701.437 200.074 701.437 197.598C701.437 195.122 699.654 193.056 697.304 192.616C696.998 192.659 696.686 192.681 696.368 192.681H695.554V190.902H696.368C696.686 190.902 696.998 190.924 697.304 190.967C699.653 190.527 701.437 188.459 701.437 185.984C701.437 183.507 699.652 181.44 697.302 181.001C696.997 181.044 696.684 181.066 696.368 181.066H695.554V179.287H696.368C696.684 179.287 696.997 179.309 697.302 179.352C699.652 178.913 701.437 176.845 701.437 174.369C701.437 171.893 699.654 169.826 697.304 169.386C696.998 169.429 696.686 169.451 696.368 169.451H695.554V167.671H696.368C696.686 167.671 696.998 167.693 697.304 167.736C699.653 167.296 701.437 165.229 701.437 162.754C701.437 159.959 699.163 157.684 696.368 157.684V156.056C700.06 156.06 703.065 159.064 703.065 162.758Z" fill="#FFB624"/>
<path d="M696.429 156.121C696.429 158.601 695.073 160.771 693.065 161.928C695.073 163.086 696.429 165.256 696.429 167.736C696.429 170.216 695.074 172.385 693.065 173.543C695.074 174.7 696.429 176.87 696.429 179.35C696.429 181.83 695.073 184 693.064 185.157C695.073 186.314 696.429 188.484 696.429 190.964C696.429 193.445 695.073 195.614 693.064 196.771C695.073 197.928 696.429 200.098 696.429 202.578C696.429 205.058 695.073 207.228 693.065 208.386C695.073 209.543 696.429 211.713 696.429 214.193C696.429 217.886 693.425 220.89 689.732 220.89V219.262C692.527 219.262 694.802 216.988 694.802 214.193C694.802 211.717 693.018 209.65 690.668 209.21C690.362 209.253 690.05 209.275 689.732 209.275H688.918V207.495H689.732C690.05 207.495 690.362 207.517 690.668 207.56C693.017 207.12 694.802 205.053 694.802 202.577C694.802 200.101 693.017 198.033 690.666 197.594C690.361 197.637 690.049 197.659 689.732 197.659H688.918V195.88H689.732C690.048 195.88 690.361 195.902 690.666 195.945C693.017 195.506 694.802 193.438 694.802 190.962C694.802 188.486 693.017 186.418 690.666 185.979C690.361 186.022 690.049 186.044 689.732 186.044H688.918V184.265H689.732C690.048 184.265 690.361 184.287 690.666 184.33C693.017 183.891 694.802 181.823 694.802 179.347C694.802 176.871 693.018 174.804 690.668 174.364C690.362 174.407 690.05 174.429 689.732 174.429H688.918V172.65H689.732C690.05 172.65 690.362 172.672 690.668 172.715C693.017 172.275 694.802 170.208 694.802 167.733C694.802 165.257 693.018 163.19 690.668 162.75C690.362 162.793 690.05 162.815 689.732 162.815H688.918V161.036H689.732C690.05 161.036 690.362 161.058 690.668 161.101C693.017 160.661 694.802 158.593 694.802 156.118C694.802 153.323 692.527 151.049 689.732 151.049V149.421C693.425 149.425 696.429 152.429 696.429 156.121Z" fill="#FFB624"/>
<path d="M689.793 149.486C689.793 151.967 688.437 154.136 686.429 155.293C688.437 156.45 689.793 158.62 689.793 161.1C689.793 163.58 688.438 165.75 686.429 166.908C688.438 168.065 689.793 170.235 689.793 172.715C689.793 175.195 688.438 177.364 686.429 178.522C688.438 179.679 689.793 181.849 689.793 184.329C689.793 186.809 688.437 188.979 686.429 190.136C688.437 191.293 689.793 193.463 689.793 195.943C689.793 198.423 688.437 200.593 686.429 201.75C688.437 202.907 689.793 205.077 689.793 207.557C689.793 211.25 686.789 214.254 683.096 214.254V212.626C685.891 212.626 688.165 210.351 688.165 207.556C688.165 205.079 686.38 203.012 684.03 202.573C683.725 202.616 683.413 202.638 683.096 202.638H682.282V200.859H683.096C683.412 200.859 683.725 200.881 684.03 200.924C686.38 200.485 688.165 198.417 688.165 195.941C688.165 193.465 686.38 191.397 684.03 190.958C683.725 191.001 683.413 191.023 683.096 191.023H682.282V189.244H683.096C683.412 189.244 683.725 189.266 684.03 189.309C686.38 188.869 688.165 186.802 688.165 184.326C688.165 181.85 686.381 179.783 684.032 179.343C683.726 179.386 683.414 179.408 683.096 179.408H682.282V177.629H683.096C683.414 177.629 683.726 177.651 684.032 177.694C686.381 177.254 688.165 175.187 688.165 172.712C688.165 170.236 686.381 168.169 684.032 167.729C683.726 167.772 683.414 167.794 683.096 167.794H682.282V166.014H683.096C683.414 166.014 683.726 166.036 684.032 166.079C686.381 165.639 688.165 163.572 688.165 161.096C688.165 158.619 686.38 156.552 684.03 156.113C683.725 156.156 683.413 156.178 683.096 156.178H682.282V154.399H683.096C683.412 154.399 683.725 154.421 684.03 154.464C686.38 154.025 688.165 151.957 688.165 149.481C688.165 146.686 685.891 144.412 683.096 144.412V142.784C686.789 142.789 689.793 145.793 689.793 149.486Z" fill="#FFB624"/>
</g>
<mask id="mask37_6_6" style="mask-type:luminance" maskUnits="userSpaceOnUse" x="-6" y="1" width="750" height="500">
<path d="M744 1H-6V501H744V1Z" fill="white"/>
</mask>
<g mask="url(#mask37_6_6)">
<path d="M79.174 201.048H96.722L87.948 187.568L79.174 201.048Z" fill="#42004C"/>
<path d="M70.099 214.858H87.647L78.873 201.377L70.099 214.858Z" fill="#42004C"/>
<path d="M61.024 228.667H78.572L69.798 215.186L61.024 228.667Z" fill="#42004C"/>
<path d="M61.506 201.005H79.054L70.28 187.524L61.506 201.005Z" fill="#42004C"/>
<path d="M43.357 201.005H60.905L52.131 187.524L43.357 201.005Z" fill="#42004C"/>
<path d="M52.432 214.814H69.98L61.206 201.333L52.432 214.814Z" fill="#42004C"/>
</g>
<mask id="mask38_6_6" style="mask-type:luminance" maskUnits="userSpaceOnUse" x="-6" y="1" width="750" height="500">
<path d="M744 1H-6V501H744V1Z" fill="white"/>
</mask>
<g mask="url(#mask38_6_6)">
<path d="M122.185 254.27L118.487 257.957L129.665 269.17L133.363 265.483L122.185 254.27Z" fill="#FFB624"/>
<path d="M129.671 254.249L118.493 265.462L122.192 269.149L133.37 257.936L129.671 254.249Z" fill="#FFB624"/>
</g>
<mask id="mask39_6_6" style="mask-type:luminance" maskUnits="userSpaceOnUse" x="-6" y="1" width="750" height="500">
<path d="M744 1H-6V501H744V1Z" fill="white"/>
</mask>
<g mask="url(#mask39_6_6)">
<path d="M781.734 80.7821C780.795 57.5671 761.744 39.0341 738.369 39.0341C714.994 39.0341 695.942 57.5671 695.004 80.7821H781.734Z" fill="#DBDBDB"/>
<path d="M763.431 88.7241C762.888 75.3071 751.878 64.5961 738.369 64.5961C724.86 64.5961 713.849 75.3071 713.307 88.7241H763.431Z" fill="#FFB624"/>
</g>
<mask id="mask40_6_6" style="mask-type:luminance" maskUnits="userSpaceOnUse" x="-6" y="1" width="750" height="500">
<path d="M744 1H-6V501H744V1Z" fill="white"/>
</mask>
<g mask="url(#mask40_6_6)">
<path d="M546.082 240.037C528.626 240.743 514.689 255.068 514.689 272.646C514.689 290.224 528.625 304.549 546.082 305.255V240.037Z" fill="#DBDBDB"/>
<path d="M552.054 253.8C541.965 254.208 533.911 262.487 533.911 272.646C533.911 282.805 541.965 291.084 552.054 291.492V253.8Z" fill="#FFB624"/>
</g>
<mask id="mask41_6_6" style="mask-type:luminance" maskUnits="userSpaceOnUse" x="-6" y="1" width="750" height="500">
<path d="M744 1H-6V501H744V1Z" fill="white"/>
</mask>
<g mask="url(#mask41_6_6)">
<path d="M517.82 545.911C491.562 545.911 470.201 524.549 470.201 498.291C470.201 472.033 491.563 450.671 517.82 450.671C544.078 450.671 565.44 472.033 565.44 498.291C565.44 524.549 544.078 545.911 517.82 545.911ZM517.82 453.795C493.285 453.795 473.324 473.756 473.324 498.292C473.324 522.828 493.285 542.789 517.82 542.789C542.356 542.789 562.317 522.828 562.317 498.292C562.317 473.756 542.356 453.795 517.82 453.795Z" fill="#FFB624"/>
<path d="M517.82 538.298C495.761 538.298 477.813 520.351 477.813 498.291C477.813 476.232 495.76 458.284 517.82 458.284C539.88 458.284 557.827 476.231 557.827 498.291C557.827 520.351 539.88 538.298 517.82 538.298ZM517.82 461.408C497.482 461.408 480.937 477.954 480.937 498.291C480.937 518.629 497.483 535.175 517.82 535.175C538.158 535.175 554.704 518.629 554.704 498.291C554.704 477.954 538.158 461.408 517.82 461.408Z" fill="#FFB624"/>
<path d="M517.82 530.381C500.126 530.381 485.731 515.986 485.731 498.291C485.731 480.597 500.126 466.202 517.82 466.202C535.515 466.202 549.91 480.597 549.91 498.291C549.91 515.985 535.515 530.381 517.82 530.381ZM517.82 469.325C501.848 469.325 488.854 482.319 488.854 498.291C488.854 514.263 501.848 527.257 517.82 527.257C533.792 527.257 546.787 514.263 546.787 498.291C546.787 482.319 533.792 469.325 517.82 469.325Z" fill="#FFB624"/>
<path d="M517.82 522.158C504.66 522.158 493.953 511.451 493.953 498.291C493.953 485.131 504.66 474.424 517.82 474.424C530.981 474.424 541.688 485.131 541.688 498.291C541.688 511.451 530.981 522.158 517.82 522.158ZM517.82 477.547C506.382 477.547 497.076 486.853 497.076 498.291C497.076 509.729 506.382 519.035 517.82 519.035C529.258 519.035 538.565 509.729 538.565 498.291C538.565 486.853 529.258 477.547 517.82 477.547Z" fill="#FFB624"/>
<path d="M517.82 514.851C508.69 514.851 501.261 507.423 501.261 498.292C501.261 489.162 508.689 481.733 517.82 481.733C526.951 481.733 534.379 489.161 534.379 498.292C534.38 507.422 526.951 514.851 517.82 514.851ZM517.82 484.856C510.411 484.856 504.385 490.883 504.385 498.291C504.385 505.7 510.412 511.727 517.82 511.727C525.228 511.727 531.256 505.699 531.256 498.291C531.256 490.883 525.229 484.856 517.82 484.856Z" fill="#FFB624"/>
<path d="M526.944 499.772C527.76 494.742 524.344 490.003 519.314 489.186C514.284 488.37 509.544 491.786 508.728 496.816C507.912 501.846 511.328 506.586 516.358 507.402C521.388 508.219 526.128 504.803 526.944 499.772Z" fill="#FFB624"/>
</g>
<mask id="mask42_6_6" style="mask-type:luminance" maskUnits="userSpaceOnUse" x="-6" y="1" width="750" height="500">
<path d="M744 1H-6V501H744V1Z" fill="white"/>
</mask>
<g mask="url(#mask42_6_6)">
<path d="M36.394 153.406H33.462V152.063C33.462 151.549 33.498 151.044 33.567 150.549C32.855 146.756 29.518 143.877 25.522 143.877C21.009 143.877 17.336 147.549 17.336 152.063H14.65C14.65 146.068 19.527 141.191 25.522 141.191C29.533 141.191 33.044 143.375 34.928 146.615C36.812 143.375 40.323 141.191 44.334 141.191C50.329 141.191 55.206 146.068 55.206 152.063H52.52C52.52 147.549 48.848 143.877 44.334 143.877C40.338 143.877 37.001 146.756 36.289 150.549C36.358 151.044 36.394 151.549 36.394 152.063V153.406Z" fill="#42004C"/>
</g>
<mask id="mask43_6_6" style="mask-type:luminance" maskUnits="userSpaceOnUse" x="-6" y="1" width="750" height="500">
<path d="M744 1H-6V501H744V1Z" fill="white"/>
</mask>
<g mask="url(#mask43_6_6)">
<path d="M36.561 454.112L34.488 456.185L33.538 455.235C33.175 454.872 32.843 454.489 32.542 454.09C29.356 451.912 24.961 452.235 22.135 455.061C18.944 458.252 18.943 463.446 22.135 466.637L20.235 468.537C15.996 464.298 15.996 457.4 20.235 453.161C23.071 450.325 27.098 449.386 30.722 450.345C29.763 446.721 30.701 442.694 33.538 439.858C37.777 435.619 44.675 435.619 48.914 439.858L47.014 441.758C43.822 438.566 38.629 438.567 35.438 441.758C32.612 444.584 32.289 448.979 34.467 452.164C34.866 452.466 35.249 452.797 35.612 453.16L36.561 454.112Z" fill="#42004C"/>
</g>
<mask id="mask44_6_6" style="mask-type:luminance" maskUnits="userSpaceOnUse" x="-6" y="1" width="750" height="500">
<path d="M744 1H-6V501H744V1Z" fill="white"/>
</mask>
<g mask="url(#mask44_6_6)">
<path d="M512.918 428.71C488.776 428.71 469.134 409.069 469.134 384.926C469.134 360.783 488.775 341.142 512.918 341.142V360.732C499.578 360.732 488.725 371.585 488.725 384.925C488.725 398.265 499.578 409.118 512.918 409.118V428.71Z" fill="#DBDBDB"/>
<path d="M518.915 413.375C497.633 413.375 480.318 396.06 480.318 374.778C480.318 353.495 497.633 336.18 518.915 336.18V345.399C502.717 345.399 489.537 358.578 489.537 374.778C489.537 390.977 502.716 404.156 518.915 404.156V413.375Z" fill="#42004C"/>
<mask id="mask45_6_6" style="mask-type:luminance" maskUnits="userSpaceOnUse" x="511" y="345" width="62" height="63">
<path d="M547.734 406.752C564.477 403.528 575.435 387.342 572.211 370.6C568.987 353.858 552.802 342.899 536.059 346.123C519.317 349.347 508.359 365.533 511.583 382.275C514.807 399.017 530.992 409.976 547.734 406.752Z" fill="white"/>
</mask>
<g mask="url(#mask45_6_6)">
<path d="M566.437 348.242C565.681 348.242 565.067 347.631 565.067 346.876C565.067 346.121 565.68 345.51 566.437 345.51C567.193 345.51 567.807 346.121 567.807 346.876C567.807 347.631 567.194 348.242 566.437 348.242Z" fill="#FFB624"/>
<path d="M550.905 348.242C550.149 348.242 549.535 347.631 549.535 346.876C549.535 346.121 550.148 345.51 550.905 345.51C551.662 345.51 552.275 346.121 552.275 346.876C552.275 347.631 551.661 348.242 550.905 348.242Z" fill="#FFB624"/>
<path d="M535.372 348.242C534.615 348.242 534.002 347.631 534.002 346.876C534.002 346.121 534.615 345.51 535.372 345.51C536.128 345.51 536.742 346.121 536.742 346.876C536.742 347.631 536.129 348.242 535.372 348.242Z" fill="#FFB624"/>
<path d="M519.84 348.242C519.083 348.242 518.47 347.631 518.47 346.876C518.47 346.121 519.083 345.51 519.84 345.51C520.596 345.51 521.21 346.121 521.21 346.876C521.21 347.631 520.596 348.242 519.84 348.242Z" fill="#FFB624"/>
<path d="M566.437 365.147C565.681 365.147 565.067 364.536 565.067 363.781C565.067 363.026 565.68 362.415 566.437 362.415C567.193 362.415 567.807 363.026 567.807 363.781C567.807 364.536 567.194 365.147 566.437 365.147Z" fill="#FFB624"/>
<path d="M550.905 365.147C550.149 365.147 549.535 364.536 549.535 363.781C549.535 363.026 550.148 362.415 550.905 362.415C551.662 362.415 552.275 363.026 552.275 363.781C552.275 364.536 551.661 365.147 550.905 365.147Z" fill="#FFB624"/>
<path d="M535.372 365.147C534.615 365.147 534.002 364.536 534.002 363.781C534.002 363.026 534.615 362.415 535.372 362.415C536.128 362.415 536.742 363.026 536.742 363.781C536.742 364.536 536.129 365.147 535.372 365.147Z" fill="#FFB624"/>
<path d="M519.84 365.147C519.083 365.147 518.47 364.536 518.47 363.781C518.47 363.026 519.083 362.415 519.84 362.415C520.596 362.415 521.21 363.026 521.21 363.781C521.21 364.536 520.596 365.147 519.84 365.147Z" fill="#FFB624"/>
<path d="M566.437 382.052C565.681 382.052 565.067 381.441 565.067 380.686C565.067 379.932 565.68 379.32 566.437 379.32C567.193 379.32 567.807 379.932 567.807 380.686C567.807 381.44 567.194 382.052 566.437 382.052Z" fill="#FFB624"/>
<path d="M550.905 382.052C550.149 382.052 549.535 381.441 549.535 380.686C549.535 379.932 550.148 379.32 550.905 379.32C551.662 379.32 552.275 379.932 552.275 380.686C552.274 381.44 551.661 382.052 550.905 382.052Z" fill="#FFB624"/>
<path d="M535.372 382.052C534.615 382.052 534.002 381.441 534.002 380.686C534.002 379.932 534.615 379.32 535.372 379.32C536.128 379.32 536.742 379.932 536.742 380.686C536.742 381.44 536.129 382.052 535.372 382.052Z" fill="#FFB624"/>
<path d="M519.84 382.052C519.083 382.052 518.47 381.441 518.47 380.686C518.47 379.932 519.083 379.32 519.84 379.32C520.596 379.32 521.21 379.932 521.21 380.686C521.21 381.44 520.596 382.052 519.84 382.052Z" fill="#FFB624"/>
<path d="M566.437 398.957C565.681 398.957 565.067 398.346 565.067 397.591C565.067 396.837 565.68 396.225 566.437 396.225C567.193 396.225 567.807 396.837 567.807 397.591C567.807 398.345 567.194 398.957 566.437 398.957Z" fill="#FFB624"/>
<path d="M550.905 398.957C550.149 398.957 549.535 398.346 549.535 397.591C549.535 396.837 550.148 396.225 550.905 396.225C551.662 396.225 552.275 396.837 552.275 397.591C552.274 398.345 551.661 398.957 550.905 398.957Z" fill="#FFB624"/>
<path d="M535.372 398.957C534.615 398.957 534.002 398.346 534.002 397.591C534.002 396.837 534.615 396.225 535.372 396.225C536.128 396.225 536.742 396.837 536.742 397.591C536.742 398.345 536.129 398.957 535.372 398.957Z" fill="#FFB624"/>
<path d="M519.84 398.957C519.083 398.957 518.47 398.346 518.47 397.591C518.47 396.837 519.083 396.225 519.84 396.225C520.596 396.225 521.21 396.837 521.21 397.591C521.21 398.345 520.596 398.957 519.84 398.957Z" fill="#FFB624"/>
<path d="M566.437 356.572C565.681 356.572 565.067 355.961 565.067 355.206C565.067 354.452 565.68 353.84 566.437 353.84C567.193 353.84 567.807 354.452 567.807 355.206C567.807 355.961 567.194 356.572 566.437 356.572Z" fill="#FFB624"/>
<path d="M550.905 356.572C550.149 356.572 549.535 355.961 549.535 355.206C549.535 354.452 550.148 353.84 550.905 353.84C551.662 353.84 552.275 354.452 552.275 355.206C552.274 355.961 551.661 356.572 550.905 356.572Z" fill="#FFB624"/>
<path d="M535.372 356.572C534.615 356.572 534.002 355.961 534.002 355.206C534.002 354.452 534.615 353.84 535.372 353.84C536.128 353.84 536.742 354.452 536.742 355.206C536.742 355.961 536.129 356.572 535.372 356.572Z" fill="#FFB624"/>
<path d="M519.84 356.572C519.083 356.572 518.47 355.961 518.47 355.206C518.47 354.452 519.083 353.84 519.84 353.84C520.596 353.84 521.21 354.452 521.21 355.206C521.21 355.961 520.596 356.572 519.84 356.572Z" fill="#FFB624"/>
<path d="M566.437 373.477C565.681 373.477 565.067 372.865 565.067 372.111C565.067 371.357 565.68 370.745 566.437 370.745C567.193 370.745 567.807 371.357 567.807 372.111C567.807 372.866 567.194 373.477 566.437 373.477Z" fill="#FFB624"/>
<path d="M550.905 373.477C550.149 373.477 549.535 372.865 549.535 372.111C549.535 371.357 550.148 370.745 550.905 370.745C551.662 370.745 552.275 371.357 552.275 372.111C552.274 372.866 551.661 373.477 550.905 373.477Z" fill="#FFB624"/>
<path d="M535.372 373.477C534.615 373.477 534.002 372.865 534.002 372.111C534.002 371.357 534.615 370.745 535.372 370.745C536.128 370.745 536.742 371.357 536.742 372.111C536.742 372.866 536.129 373.477 535.372 373.477Z" fill="#FFB624"/>
<path d="M519.84 373.477C519.083 373.477 518.47 372.865 518.47 372.111C518.47 371.357 519.083 370.745 519.84 370.745C520.596 370.745 521.21 371.357 521.21 372.111C521.21 372.866 520.596 373.477 519.84 373.477Z" fill="#FFB624"/>
<path d="M566.437 390.382C565.681 390.382 565.067 389.771 565.067 389.016C565.067 388.261 565.68 387.65 566.437 387.65C567.193 387.65 567.807 388.261 567.807 389.016C567.807 389.771 567.194 390.382 566.437 390.382Z" fill="#FFB624"/>
<path d="M550.905 390.382C550.149 390.382 549.535 389.771 549.535 389.016C549.535 388.261 550.148 387.65 550.905 387.65C551.662 387.65 552.275 388.261 552.275 389.016C552.275 389.771 551.661 390.382 550.905 390.382Z" fill="#FFB624"/>
<path d="M535.372 390.382C534.615 390.382 534.002 389.771 534.002 389.016C534.002 388.261 534.615 387.65 535.372 387.65C536.128 387.65 536.742 388.261 536.742 389.016C536.742 389.771 536.129 390.382 535.372 390.382Z" fill="#FFB624"/>
<path d="M519.84 390.382C519.083 390.382 518.47 389.771 518.47 389.016C518.47 388.261 519.083 387.65 519.84 387.65C520.596 387.65 521.21 388.261 521.21 389.016C521.21 389.771 520.596 390.382 519.84 390.382Z" fill="#FFB624"/>
<path d="M566.437 407.287C565.681 407.287 565.067 406.676 565.067 405.921C565.067 405.167 565.68 404.555 566.437 404.555C567.193 404.555 567.807 405.166 567.807 405.921C567.807 406.676 567.194 407.287 566.437 407.287Z" fill="#FFB624"/>
<path d="M550.905 407.287C550.149 407.287 549.535 406.676 549.535 405.921C549.535 405.167 550.148 404.555 550.905 404.555C551.662 404.555 552.275 405.166 552.275 405.921C552.274 406.676 551.661 407.287 550.905 407.287Z" fill="#FFB624"/>
<path d="M535.372 407.287C534.615 407.287 534.002 406.676 534.002 405.921C534.002 405.167 534.615 404.555 535.372 404.555C536.128 404.555 536.742 405.166 536.742 405.921C536.742 406.676 536.129 407.287 535.372 407.287Z" fill="#FFB624"/>
<path d="M519.84 407.287C519.083 407.287 518.47 406.676 518.47 405.921C518.47 405.167 519.083 404.555 519.84 404.555C520.596 404.555 521.21 405.166 521.21 405.921C521.21 406.676 520.596 407.287 519.84 407.287Z" fill="#FFB624"/>
<path d="M558.973 348.242C558.217 348.242 557.603 347.631 557.603 346.876C557.603 346.121 558.216 345.51 558.973 345.51C559.729 345.51 560.343 346.121 560.343 346.876C560.343 347.631 559.729 348.242 558.973 348.242Z" fill="#FFB624"/>
<path d="M543.441 348.242C542.685 348.242 542.071 347.631 542.071 346.876C542.071 346.121 542.684 345.51 543.441 345.51C544.197 345.51 544.811 346.121 544.811 346.876C544.811 347.631 544.197 348.242 543.441 348.242Z" fill="#FFB624"/>
<path d="M527.908 348.242C527.152 348.242 526.538 347.631 526.538 346.876C526.538 346.121 527.151 345.51 527.908 345.51C528.665 345.51 529.278 346.121 529.278 346.876C529.278 347.631 528.665 348.242 527.908 348.242Z" fill="#FFB624"/>
<path d="M512.376 348.242C511.62 348.242 511.006 347.631 511.006 346.876C511.006 346.121 511.619 345.51 512.376 345.51C513.133 345.51 513.746 346.121 513.746 346.876C513.746 347.631 513.132 348.242 512.376 348.242Z" fill="#FFB624"/>
<path d="M558.973 365.147C558.217 365.147 557.603 364.536 557.603 363.781C557.603 363.026 558.216 362.415 558.973 362.415C559.729 362.415 560.343 363.026 560.343 363.781C560.343 364.536 559.729 365.147 558.973 365.147Z" fill="#FFB624"/>
<path d="M543.441 365.147C542.685 365.147 542.071 364.536 542.071 363.781C542.071 363.026 542.684 362.415 543.441 362.415C544.197 362.415 544.811 363.026 544.811 363.781C544.811 364.536 544.197 365.147 543.441 365.147Z" fill="#FFB624"/>
<path d="M527.908 365.147C527.152 365.147 526.538 364.536 526.538 363.781C526.538 363.026 527.151 362.415 527.908 362.415C528.665 362.415 529.278 363.026 529.278 363.781C529.278 364.536 528.665 365.147 527.908 365.147Z" fill="#FFB624"/>
<path d="M512.376 365.147C511.62 365.147 511.006 364.536 511.006 363.781C511.006 363.026 511.619 362.415 512.376 362.415C513.133 362.415 513.746 363.026 513.746 363.781C513.746 364.536 513.132 365.147 512.376 365.147Z" fill="#FFB624"/>
<path d="M558.973 382.052C558.217 382.052 557.603 381.441 557.603 380.686C557.603 379.932 558.216 379.32 558.973 379.32C559.729 379.32 560.343 379.932 560.343 380.686C560.343 381.44 559.729 382.052 558.973 382.052Z" fill="#FFB624"/>
<path d="M543.441 382.052C542.685 382.052 542.071 381.441 542.071 380.686C542.071 379.932 542.684 379.32 543.441 379.32C544.197 379.32 544.811 379.932 544.811 380.686C544.81 381.44 544.197 382.052 543.441 382.052Z" fill="#FFB624"/>
<path d="M527.908 382.052C527.152 382.052 526.538 381.441 526.538 380.686C526.538 379.932 527.151 379.32 527.908 379.32C528.665 379.32 529.278 379.932 529.278 380.686C529.278 381.44 528.665 382.052 527.908 382.052Z" fill="#FFB624"/>
<path d="M512.376 382.052C511.62 382.052 511.006 381.441 511.006 380.686C511.006 379.932 511.619 379.32 512.376 379.32C513.133 379.32 513.746 379.932 513.746 380.686C513.746 381.44 513.132 382.052 512.376 382.052Z" fill="#FFB624"/>
<path d="M558.973 398.957C558.217 398.957 557.603 398.346 557.603 397.591C557.603 396.837 558.216 396.225 558.973 396.225C559.729 396.225 560.343 396.837 560.343 397.591C560.343 398.345 559.729 398.957 558.973 398.957Z" fill="#FFB624"/>
<path d="M543.441 398.957C542.685 398.957 542.071 398.346 542.071 397.591C542.071 396.837 542.684 396.225 543.441 396.225C544.197 396.225 544.811 396.837 544.811 397.591C544.81 398.345 544.197 398.957 543.441 398.957Z" fill="#FFB624"/>
<path d="M527.908 398.957C528.665 398.957 529.278 398.345 529.278 397.591C529.278 396.836 528.665 396.225 527.908 396.225C527.151 396.225 526.538 396.836 526.538 397.591C526.538 398.345 527.151 398.957 527.908 398.957Z" fill="#FFB624"/>
<path d="M512.376 398.957C513.133 398.957 513.746 398.345 513.746 397.591C513.746 396.836 513.133 396.225 512.376 396.225C511.619 396.225 511.006 396.836 511.006 397.591C511.006 398.345 511.619 398.957 512.376 398.957Z" fill="#FFB624"/>
<path d="M558.973 356.572C558.217 356.572 557.603 355.961 557.603 355.206C557.603 354.452 558.216 353.84 558.973 353.84C559.729 353.84 560.343 354.452 560.343 355.206C560.343 355.961 559.729 356.572 558.973 356.572Z" fill="#FFB624"/>
<path d="M543.441 356.572C542.685 356.572 542.071 355.961 542.071 355.206C542.071 354.452 542.684 353.84 543.441 353.84C544.197 353.84 544.811 354.452 544.811 355.206C544.81 355.961 544.197 356.572 543.441 356.572Z" fill="#FFB624"/>
<path d="M527.908 356.572C527.152 356.572 526.538 355.961 526.538 355.206C526.538 354.452 527.151 353.84 527.908 353.84C528.665 353.84 529.278 354.452 529.278 355.206C529.278 355.961 528.665 356.572 527.908 356.572Z" fill="#FFB624"/>
<path d="M512.376 356.572C511.62 356.572 511.006 355.961 511.006 355.206C511.006 354.452 511.619 353.84 512.376 353.84C513.133 353.84 513.746 354.452 513.746 355.206C513.746 355.961 513.132 356.572 512.376 356.572Z" fill="#FFB624"/>
<path d="M558.973 373.477C558.217 373.477 557.603 372.865 557.603 372.111C557.603 371.357 558.216 370.745 558.973 370.745C559.729 370.745 560.343 371.357 560.343 372.111C560.343 372.866 559.729 373.477 558.973 373.477Z" fill="#FFB624"/>
<path d="M543.441 373.477C542.685 373.477 542.071 372.865 542.071 372.111C542.071 371.357 542.684 370.745 543.441 370.745C544.197 370.745 544.811 371.357 544.811 372.111C544.81 372.866 544.197 373.477 543.441 373.477Z" fill="#FFB624"/>
<path d="M527.908 373.477C528.665 373.477 529.278 372.865 529.278 372.111C529.278 371.356 528.665 370.745 527.908 370.745C527.151 370.745 526.538 371.356 526.538 372.111C526.538 372.865 527.151 373.477 527.908 373.477Z" fill="#FFB624"/>
<path d="M512.376 373.477C513.133 373.477 513.746 372.865 513.746 372.111C513.746 371.356 513.133 370.745 512.376 370.745C511.619 370.745 511.006 371.356 511.006 372.111C511.006 372.865 511.619 373.477 512.376 373.477Z" fill="#FFB624"/>
<path d="M558.973 390.382C558.217 390.382 557.603 389.771 557.603 389.016C557.603 388.261 558.216 387.65 558.973 387.65C559.729 387.65 560.343 388.261 560.343 389.016C560.343 389.771 559.729 390.382 558.973 390.382Z" fill="#FFB624"/>
<path d="M543.441 390.382C542.685 390.382 542.071 389.771 542.071 389.016C542.071 388.261 542.684 387.65 543.441 387.65C544.197 387.65 544.811 388.261 544.811 389.016C544.811 389.771 544.197 390.382 543.441 390.382Z" fill="#FFB624"/>
<path d="M527.908 390.382C527.152 390.382 526.538 389.771 526.538 389.016C526.538 388.261 527.151 387.65 527.908 387.65C528.665 387.65 529.278 388.261 529.278 389.016C529.278 389.771 528.665 390.382 527.908 390.382Z" fill="#FFB624"/>
<path d="M512.376 390.382C511.62 390.382 511.006 389.771 511.006 389.016C511.006 388.261 511.619 387.65 512.376 387.65C513.133 387.65 513.746 388.261 513.746 389.016C513.746 389.771 513.132 390.382 512.376 390.382Z" fill="#FFB624"/>
<path d="M558.973 407.287C558.217 407.287 557.603 406.676 557.603 405.921C557.603 405.167 558.216 404.555 558.973 404.555C559.729 404.555 560.343 405.166 560.343 405.921C560.343 406.676 559.729 407.287 558.973 407.287Z" fill="#FFB624"/>
<path d="M543.441 407.287C542.685 407.287 542.071 406.676 542.071 405.921C542.071 405.167 542.684 404.555 543.441 404.555C544.197 404.555 544.811 405.166 544.811 405.921C544.81 406.676 544.197 407.287 543.441 407.287Z" fill="#FFB624"/>
<path d="M527.908 407.287C527.152 407.287 526.538 406.676 526.538 405.921C526.538 405.167 527.151 404.555 527.908 404.555C528.665 404.555 529.278 405.166 529.278 405.921C529.278 406.676 528.665 407.287 527.908 407.287Z" fill="#FFB624"/>
<path d="M512.376 407.287C511.62 407.287 511.006 406.676 511.006 405.921C511.006 405.167 511.619 404.555 512.376 404.555C513.133 404.555 513.746 405.166 513.746 405.921C513.746 406.676 513.132 407.287 512.376 407.287Z" fill="#FFB624"/>
</g>
</g>
<mask id="mask46_6_6" style="mask-type:luminance" maskUnits="userSpaceOnUse" x="-6" y="1" width="750" height="500">
<path d="M744 1H-6V501H744V1Z" fill="white"/>
</mask>
<g mask="url(#mask46_6_6)">
<path d="M637.334 32.388C637.334 34.753 635.417 36.67 633.052 36.67C630.687 36.67 628.77 34.753 628.77 32.388C628.77 30.023 630.687 28.106 633.052 28.106C635.417 28.106 637.334 30.023 637.334 32.388Z" fill="#DBDBDB"/>
<path d="M650.181 32.388C650.181 34.753 648.264 36.67 645.899 36.67C643.534 36.67 641.617 34.753 641.617 32.388C641.617 30.023 643.534 28.106 645.899 28.106C648.263 28.106 650.181 30.023 650.181 32.388Z" fill="#DBDBDB"/>
<path d="M658.745 36.67C661.11 36.67 663.027 34.7528 663.027 32.388C663.027 30.0231 661.11 28.106 658.745 28.106C656.38 28.106 654.463 30.0231 654.463 32.388C654.463 34.7528 656.38 36.67 658.745 36.67Z" fill="#DBDBDB"/>
<path d="M637.334 44.517C637.334 46.882 635.417 48.799 633.052 48.799C630.687 48.799 628.77 46.882 628.77 44.517C628.77 42.152 630.687 40.235 633.052 40.235C635.417 40.235 637.334 42.152 637.334 44.517Z" fill="#DBDBDB"/>
<path d="M650.181 44.517C650.181 46.882 648.264 48.799 645.899 48.799C643.534 48.799 641.617 46.882 641.617 44.517C641.617 42.152 643.534 40.235 645.899 40.235C648.263 40.235 650.181 42.152 650.181 44.517Z" fill="#DBDBDB"/>
<path d="M658.745 48.799C661.11 48.799 663.027 46.8819 663.027 44.517C663.027 42.1521 661.11 40.235 658.745 40.235C656.38 40.235 654.463 42.1521 654.463 44.517C654.463 46.8819 656.38 48.799 658.745 48.799Z" fill="#DBDBDB"/>
<path d="M637.334 56.646C637.334 59.011 635.417 60.928 633.052 60.928C630.687 60.928 628.77 59.011 628.77 56.646C628.77 54.281 630.687 52.364 633.052 52.364C635.417 52.364 637.334 54.281 637.334 56.646Z" fill="#DBDBDB"/>
<path d="M650.181 56.646C650.181 59.011 648.264 60.928 645.899 60.928C643.534 60.928 641.617 59.011 641.617 56.646C641.617 54.281 643.534 52.364 645.899 52.364C648.263 52.364 650.181 54.281 650.181 56.646Z" fill="#DBDBDB"/>
<path d="M663.027 56.646C663.027 59.011 661.11 60.928 658.745 60.928C656.38 60.928 654.463 59.011 654.463 56.646C654.463 54.281 656.38 52.364 658.745 52.364C661.11 52.364 663.027 54.281 663.027 56.646Z" fill="#DBDBDB"/>
</g>
<mask id="mask47_6_6" style="mask-type:luminance" maskUnits="userSpaceOnUse" x="-6" y="1" width="750" height="500">
<path d="M744 1H-6V501H744V1Z" fill="white"/>
</mask>
<g mask="url(#mask47_6_6)">
<path d="M671.69 479.323C673.337 480.97 673.337 483.641 671.69 485.288C670.043 486.935 667.372 486.935 665.726 485.288C664.079 483.641 664.079 480.97 665.726 479.323C667.373 477.676 670.043 477.676 671.69 479.323Z" fill="#DBDBDB"/>
<path d="M683.523 479.323C685.17 480.97 685.17 483.641 683.523 485.288C681.876 486.935 679.205 486.935 677.558 485.288C675.911 483.641 675.911 480.97 677.558 479.323C679.205 477.676 681.876 477.676 683.523 479.323Z" fill="#DBDBDB"/>
<path d="M695.355 479.323C697.002 480.97 697.002 483.641 695.355 485.288C693.708 486.935 691.038 486.935 689.391 485.288C687.744 483.641 687.744 480.97 689.391 479.323C691.038 477.676 693.708 477.676 695.355 479.323Z" fill="#DBDBDB"/>
<path d="M707.188 479.323C708.835 480.97 708.835 483.641 707.188 485.288C705.541 486.935 702.87 486.935 701.223 485.288C699.576 483.641 699.576 480.97 701.223 479.323C702.871 477.676 705.541 477.676 707.188 479.323Z" fill="#DBDBDB"/>
<path d="M677.314 489.281C678.961 490.928 678.961 493.599 677.314 495.246C675.667 496.893 672.996 496.893 671.35 495.246C669.703 493.599 669.703 490.928 671.35 489.281C672.996 487.634 675.667 487.634 677.314 489.281Z" fill="#DBDBDB"/>
<path d="M689.146 489.281C690.793 490.928 690.793 493.599 689.146 495.246C687.499 496.893 684.829 496.893 683.181 495.246C681.534 493.599 681.534 490.928 683.181 489.281C684.829 487.634 687.499 487.634 689.146 489.281Z" fill="#DBDBDB"/>
<path d="M700.979 489.281C702.626 490.928 702.626 493.599 700.979 495.246C699.332 496.893 696.661 496.893 695.014 495.246C693.367 493.599 693.367 490.928 695.014 489.281C696.661 487.634 699.332 487.634 700.979 489.281Z" fill="#DBDBDB"/>
<path d="M683.171 499.005C684.818 500.652 684.818 503.322 683.171 504.969C681.524 506.616 678.854 506.616 677.207 504.969C675.56 503.322 675.56 500.652 677.207 499.005C678.854 497.358 681.524 497.358 683.171 499.005Z" fill="#DBDBDB"/>
<path d="M695.004 499.005C696.651 500.652 696.651 503.322 695.004 504.969C693.357 506.616 690.687 506.616 689.04 504.969C687.393 503.322 687.393 500.652 689.04 499.005C690.687 497.358 693.357 497.358 695.004 499.005Z" fill="#DBDBDB"/>
</g>
<mask id="mask48_6_6" style="mask-type:luminance" maskUnits="userSpaceOnUse" x="-6" y="1" width="750" height="500">
<path d="M744 1H-6V501H744V1Z" fill="white"/>
</mask>
<g mask="url(#mask48_6_6)">
<path d="M50.696 43.437L42.26 34.977L34.27 42.992L26.426 35.125L18.732 42.843L8.892 32.974L11.998 29.878L18.732 36.633L26.426 28.915L34.27 36.781L42.26 28.766L50.696 37.227L59.426 28.469L67.862 36.929L74.744 30.027L77.849 33.123L67.862 43.14L59.426 34.68L50.696 43.437Z" fill="#42004C"/>
<path d="M65.436 29.62L57.001 21.16L49.01 29.175L41.167 21.308L33.472 29.026L23.633 19.157L26.738 16.061L33.472 22.816L41.167 15.098L49.01 22.964L57.001 14.949L65.436 23.41L74.166 14.652L82.602 23.112L89.484 16.21L92.59 19.306L82.602 29.323L74.166 20.863L65.436 29.62Z" stroke="#42004C" stroke-miterlimit="10"/>
</g>
<mask id="mask49_6_6" style="mask-type:luminance" maskUnits="userSpaceOnUse" x="-6" y="1" width="750" height="500">
<path d="M744 1H-6V501H744V1Z" fill="white"/>
</mask>
<g mask="url(#mask49_6_6)">
<path d="M631.756 436.042L622.057 426.314L612.869 435.529L603.851 426.484L595.003 435.358L583.69 424.01L587.26 420.451L595.003 428.217L603.851 419.343L612.869 428.388L622.057 419.172L631.756 428.901L641.794 418.831L651.493 428.559L659.406 420.622L662.977 424.182L651.493 435.7L641.794 425.972L631.756 436.042Z" stroke="#FFB624" stroke-miterlimit="10"/>
</g>
<mask id="mask50_6_6" style="mask-type:luminance" maskUnits="userSpaceOnUse" x="-6" y="1" width="750" height="500">
<path d="M744 1H-6V501H744V1Z" fill="white"/>
</mask>
<g mask="url(#mask50_6_6)">
<path d="M718.117 285.304L708.418 275.576L699.23 284.792L690.211 275.747L681.364 284.621L670.051 273.273L673.621 269.714L681.364 277.48L690.211 268.606L699.23 277.651L708.418 268.435L718.117 278.164L728.155 268.094L737.854 277.822L745.767 269.885L749.338 273.445L737.854 284.962L728.155 275.235L718.117 285.304Z" fill="#42004C"/>
</g>
<mask id="mask51_6_6" style="mask-type:luminance" maskUnits="userSpaceOnUse" x="-6" y="1" width="750" height="500">
<path d="M744 1H-6V501H744V1Z" fill="white"/>
</mask>
<g mask="url(#mask51_6_6)">
<path d="M609.387 144.036L597.111 144.018L597.128 155.647L585.714 155.63L585.731 166.829L571.41 166.807L571.417 162.302L581.218 162.317L581.201 151.118L592.616 151.135L592.598 139.505L604.875 139.523L604.855 126.817L617.131 126.835L617.116 116.819L621.622 116.812L621.644 131.347L609.368 131.329L609.387 144.036Z" fill="#42004C"/>
</g>
<mask id="mask52_6_6" style="mask-type:luminance" maskUnits="userSpaceOnUse" x="-6" y="1" width="750" height="500">
<path d="M744 1H-6V501H744V1Z" fill="white"/>
</mask>
<g mask="url(#mask52_6_6)">
<path d="M446.915 489.271L434.638 489.252L434.656 500.882L423.242 500.865L423.258 512.064L408.938 512.042L408.945 507.537L418.746 507.551L418.729 496.353L430.144 496.37L430.126 484.74L442.402 484.758L442.383 472.052L454.659 472.069L454.644 462.053L459.15 462.047L459.172 476.582L446.895 476.564L446.915 489.271Z" stroke="#42004C" stroke-miterlimit="10"/>
</g>
<mask id="mask53_6_6" style="mask-type:luminance" maskUnits="userSpaceOnUse" x="-6" y="1" width="750" height="500">
<path d="M744 1H-6V501H744V1Z" fill="white"/>
</mask>
<g mask="url(#mask53_6_6)">
<path d="M310.069 505.763L323.806 505.783L323.786 492.77L336.559 492.789L336.54 480.258L352.564 480.282L352.556 485.324L341.589 485.307L341.608 497.838L328.835 497.819L328.855 510.833L315.118 510.812L315.14 525.03L301.403 525.01L301.42 536.218L296.378 536.225L296.354 519.961L310.091 519.981L310.069 505.763Z" fill="#FFB624"/>
</g>
<mask id="mask54_6_6" style="mask-type:luminance" maskUnits="userSpaceOnUse" x="-6" y="1" width="750" height="500">
<path d="M744 1H-6V501H744V1Z" fill="white"/>
</mask>
<g mask="url(#mask54_6_6)">
<path d="M742.228 315.427C741.349 315.427 740.637 314.717 740.637 313.841C740.637 312.965 741.349 312.255 742.228 312.255C743.107 312.255 743.819 312.965 743.819 313.841C743.819 314.717 743.107 315.427 742.228 315.427Z" fill="#FFB624"/>
<path d="M724.186 315.427C723.307 315.427 722.595 314.717 722.595 313.841C722.595 312.965 723.307 312.255 724.186 312.255C725.065 312.255 725.777 312.965 725.777 313.841C725.777 314.717 725.065 315.427 724.186 315.427Z" fill="#FFB624"/>
<path d="M742.228 335.063C741.349 335.063 740.637 334.353 740.637 333.477C740.637 332.601 741.349 331.891 742.228 331.891C743.107 331.891 743.819 332.601 743.819 333.477C743.819 334.353 743.107 335.063 742.228 335.063Z" fill="#FFB624"/>
<path d="M724.186 335.063C723.307 335.063 722.595 334.353 722.595 333.477C722.595 332.601 723.307 331.891 724.186 331.891C725.065 331.891 725.777 332.601 725.777 333.477C725.777 334.353 725.065 335.063 724.186 335.063Z" fill="#FFB624"/>
<path d="M742.228 354.699C741.349 354.699 740.637 353.989 740.637 353.113C740.637 352.237 741.349 351.527 742.228 351.527C743.107 351.527 743.819 352.237 743.819 353.113C743.819 353.989 743.107 354.699 742.228 354.699Z" fill="#FFB624"/>
<path d="M724.186 354.699C723.307 354.699 722.595 353.989 722.595 353.113C722.595 352.237 723.307 351.527 724.186 351.527C725.065 351.527 725.777 352.237 725.777 353.113C725.777 353.989 725.065 354.699 724.186 354.699Z" fill="#FFB624"/>
<path d="M742.228 374.336C741.349 374.336 740.637 373.626 740.637 372.75C740.637 371.874 741.349 371.164 742.228 371.164C743.107 371.164 743.819 371.874 743.819 372.75C743.819 373.625 743.107 374.336 742.228 374.336Z" fill="#FFB624"/>
<path d="M724.186 374.336C723.307 374.336 722.595 373.626 722.595 372.75C722.595 371.874 723.307 371.164 724.186 371.164C725.065 371.164 725.777 371.874 725.777 372.75C725.777 373.625 725.065 374.336 724.186 374.336Z" fill="#FFB624"/>
<path d="M742.228 325.103C741.349 325.103 740.637 324.393 740.637 323.517C740.637 322.641 741.349 321.931 742.228 321.931C743.107 321.931 743.819 322.641 743.819 323.517C743.819 324.393 743.107 325.103 742.228 325.103Z" fill="#FFB624"/>
<path d="M724.186 325.103C723.307 325.103 722.595 324.393 722.595 323.517C722.595 322.641 723.307 321.931 724.186 321.931C725.065 321.931 725.777 322.641 725.777 323.517C725.777 324.393 725.065 325.103 724.186 325.103Z" fill="#FFB624"/>
<path d="M742.228 344.739C741.349 344.739 740.637 344.029 740.637 343.153C740.637 342.277 741.349 341.567 742.228 341.567C743.107 341.567 743.819 342.277 743.819 343.153C743.819 344.029 743.107 344.739 742.228 344.739Z" fill="#FFB624"/>
<path d="M724.186 344.739C723.307 344.739 722.595 344.029 722.595 343.153C722.595 342.277 723.307 341.567 724.186 341.567C725.065 341.567 725.777 342.277 725.777 343.153C725.777 344.029 725.065 344.739 724.186 344.739Z" fill="#FFB624"/>
<path d="M742.228 364.376C741.349 364.376 740.637 363.666 740.637 362.79C740.637 361.914 741.349 361.204 742.228 361.204C743.107 361.204 743.819 361.914 743.819 362.79C743.819 363.665 743.107 364.376 742.228 364.376Z" fill="#FFB624"/>
<path d="M724.186 364.376C723.307 364.376 722.595 363.666 722.595 362.79C722.595 361.914 723.307 361.204 724.186 361.204C725.065 361.204 725.777 361.914 725.777 362.79C725.777 363.665 725.065 364.376 724.186 364.376Z" fill="#FFB624"/>
<path d="M742.228 384.012C741.349 384.012 740.637 383.302 740.637 382.426C740.637 381.55 741.349 380.84 742.228 380.84C743.107 380.84 743.819 381.55 743.819 382.426C743.819 383.302 743.107 384.012 742.228 384.012Z" fill="#FFB624"/>
<path d="M724.186 384.012C723.307 384.012 722.595 383.302 722.595 382.426C722.595 381.55 723.307 380.84 724.186 380.84C725.065 380.84 725.777 381.55 725.777 382.426C725.777 383.302 725.065 384.012 724.186 384.012Z" fill="#FFB624"/>
<path d="M733.558 315.427C734.437 315.427 735.149 314.717 735.149 313.841C735.149 312.965 734.437 312.255 733.558 312.255C732.679 312.255 731.967 312.965 731.967 313.841C731.967 314.717 732.679 315.427 733.558 315.427Z" fill="#FFB624"/>
<path d="M715.516 315.427C714.637 315.427 713.925 314.717 713.925 313.841C713.925 312.965 714.637 312.255 715.516 312.255C716.395 312.255 717.107 312.965 717.107 313.841C717.107 314.717 716.395 315.427 715.516 315.427Z" fill="#FFB624"/>
<path d="M733.558 335.063C734.437 335.063 735.149 334.353 735.149 333.477C735.149 332.601 734.437 331.891 733.558 331.891C732.679 331.891 731.967 332.601 731.967 333.477C731.967 334.353 732.679 335.063 733.558 335.063Z" fill="#FFB624"/>
<path d="M715.516 335.063C714.637 335.063 713.925 334.353 713.925 333.477C713.925 332.601 714.637 331.891 715.516 331.891C716.395 331.891 717.107 332.601 717.107 333.477C717.107 334.353 716.395 335.063 715.516 335.063Z" fill="#FFB624"/>
<path d="M733.558 354.699C732.679 354.699 731.967 353.989 731.967 353.113C731.967 352.237 732.679 351.527 733.558 351.527C734.437 351.527 735.149 352.237 735.149 353.113C735.149 353.989 734.437 354.699 733.558 354.699Z" fill="#FFB624"/>
<path d="M715.516 354.699C714.637 354.699 713.925 353.989 713.925 353.113C713.925 352.237 714.637 351.527 715.516 351.527C716.395 351.527 717.107 352.237 717.107 353.113C717.107 353.989 716.395 354.699 715.516 354.699Z" fill="#FFB624"/>
<path d="M733.558 374.336C734.437 374.336 735.149 373.626 735.149 372.75C735.149 371.874 734.437 371.164 733.558 371.164C732.679 371.164 731.967 371.874 731.967 372.75C731.967 373.626 732.679 374.336 733.558 374.336Z" fill="#FFB624"/>
<path d="M715.516 374.336C714.637 374.336 713.925 373.626 713.925 372.75C713.925 371.874 714.637 371.164 715.516 371.164C716.395 371.164 717.107 371.874 717.107 372.75C717.107 373.625 716.395 374.336 715.516 374.336Z" fill="#FFB624"/>
<path d="M733.558 325.103C732.679 325.103 731.967 324.393 731.967 323.517C731.967 322.641 732.679 321.931 733.558 321.931C734.437 321.931 735.149 322.641 735.149 323.517C735.149 324.393 734.437 325.103 733.558 325.103Z" fill="#FFB624"/>
<path d="M715.516 325.103C714.637 325.103 713.925 324.393 713.925 323.517C713.925 322.641 714.637 321.931 715.516 321.931C716.395 321.931 717.107 322.641 717.107 323.517C717.107 324.393 716.395 325.103 715.516 325.103Z" fill="#FFB624"/>
<path d="M733.558 344.739C734.437 344.739 735.149 344.029 735.149 343.153C735.149 342.277 734.437 341.567 733.558 341.567C732.679 341.567 731.967 342.277 731.967 343.153C731.967 344.029 732.679 344.739 733.558 344.739Z" fill="#FFB624"/>
<path d="M715.516 344.739C714.637 344.739 713.925 344.029 713.925 343.153C713.925 342.277 714.637 341.567 715.516 341.567C716.395 341.567 717.107 342.277 717.107 343.153C717.107 344.029 716.395 344.739 715.516 344.739Z" fill="#FFB624"/>
<path d="M733.558 364.376C732.679 364.376 731.967 363.666 731.967 362.79C731.967 361.914 732.679 361.204 733.558 361.204C734.437 361.204 735.149 361.914 735.149 362.79C735.149 363.665 734.437 364.376 733.558 364.376Z" fill="#FFB624"/>
<path d="M715.516 364.376C714.637 364.376 713.925 363.666 713.925 362.79C713.925 361.914 714.637 361.204 715.516 361.204C716.395 361.204 717.107 361.914 717.107 362.79C717.107 363.665 716.395 364.376 715.516 364.376Z" fill="#FFB624"/>
<path d="M733.558 384.012C734.437 384.012 735.149 383.302 735.149 382.426C735.149 381.55 734.437 380.84 733.558 380.84C732.679 380.84 731.967 381.55 731.967 382.426C731.967 383.302 732.679 384.012 733.558 384.012Z" fill="#FFB624"/>
<path d="M715.516 384.012C714.637 384.012 713.925 383.302 713.925 382.426C713.925 381.55 714.637 380.84 715.516 380.84C716.395 380.84 717.107 381.55 717.107 382.426C717.107 383.302 716.395 384.012 715.516 384.012Z" fill="#FFB624"/>
</g>
<mask id="mask55_6_6" style="mask-type:luminance" maskUnits="userSpaceOnUse" x="-6" y="1" width="750" height="500">
<path d="M744 1H-6V501H744V1Z" fill="white"/>
</mask>
<g mask="url(#mask55_6_6)">
<path d="M735.065 269.418L725.366 259.69L716.178 268.905L707.16 259.86L698.313 268.734L686.999 257.387L690.57 253.827L698.313 261.594L707.16 252.719L716.178 261.764L725.366 252.549L735.065 262.277L745.103 252.207L754.803 261.935L762.716 253.998L766.286 257.558L754.803 269.076L745.103 259.348L735.065 269.418Z" stroke="#42004C" stroke-miterlimit="10"/>
</g>
<mask id="mask56_6_6" style="mask-type:luminance" maskUnits="userSpaceOnUse" x="-6" y="1" width="750" height="500">
<path d="M744 1H-6V501H744V1Z" fill="white"/>
</mask>
<g mask="url(#mask56_6_6)">
<path d="M587.09 223.704H633.709L610.4 183.712L587.09 223.704Z" stroke="#42004C" stroke-width="3" stroke-miterlimit="10"/>
<path d="M599.133 216.98H621.667L610.4 197.649L599.133 216.98Z" fill="#FFB624"/>
</g>
<mask id="mask57_6_6" style="mask-type:luminance" maskUnits="userSpaceOnUse" x="-6" y="1" width="750" height="500">
<path d="M744 1H-6V501H744V1Z" fill="white"/>
</mask>
<g mask="url(#mask57_6_6)">
<path d="M459.137 333.382V299.967L484.807 316.675L459.137 333.382ZM461.875 305.016V328.332L479.788 316.674L461.875 305.016Z" fill="#FFB624"/>
<path d="M456.63 316.674L444.025 308.47V324.878L456.63 316.674Z" fill="#FFB624"/>
<path d="M500.242 316.674L492.549 311.667V321.681L500.242 316.674Z" fill="#FFB624"/>
</g>
<mask id="mask58_6_6" style="mask-type:luminance" maskUnits="userSpaceOnUse" x="-6" y="1" width="750" height="500">
<path d="M744 1H-6V501H744V1Z" fill="white"/>
</mask>
<g mask="url(#mask58_6_6)">
<path d="M643.516 365.776V323.572L675.937 344.674L643.516 365.776ZM646.974 329.949V359.397L669.597 344.673L646.974 329.949Z" fill="#42004C"/>
<path d="M640.059 344.673L619.974 331.601V357.746L640.059 344.673Z" fill="#FFB624"/>
<path d="M699.328 344.673L684.776 335.203V354.144L699.328 344.673Z" fill="#42004C"/>
</g>
<mask id="mask59_6_6" style="mask-type:luminance" maskUnits="userSpaceOnUse" x="-6" y="1" width="750" height="500">
<path d="M744 1H-6V501H744V1Z" fill="white"/>
</mask>
<g mask="url(#mask59_6_6)">
<path d="M62.497 400.636H51.198V411.935H62.497V400.636Z" fill="#42004C"/>
</g>
<mask id="mask60_6_6" style="mask-type:luminance" maskUnits="userSpaceOnUse" x="-6" y="1" width="750" height="500">
<path d="M744 1H-6V501H744V1Z" fill="white"/>
</mask>
<g mask="url(#mask60_6_6)">
<path d="M516.817 427.523H502.314V442.027H516.817V427.523Z" fill="#42004C"/>
</g>
<mask id="mask61_6_6" style="mask-type:luminance" maskUnits="userSpaceOnUse" x="-6" y="1" width="750" height="500">
<path d="M744 1H-6V501H744V1Z" fill="white"/>
</mask>
<g mask="url(#mask61_6_6)">
<path d="M605.911 23.495H596.409V32.997H605.911V23.495Z" fill="#42004C"/>
</g>
<mask id="mask62_6_6" style="mask-type:luminance" maskUnits="userSpaceOnUse" x="-6" y="1" width="750" height="500">
<path d="M744 1H-6V501H744V1Z" fill="white"/>
</mask>
<g mask="url(#mask62_6_6)">
<path d="M718.884 117.715H708.419V128.18H718.884V117.715Z" fill="#42004C"/>
</g>
<mask id="mask63_6_6" style="mask-type:luminance" maskUnits="userSpaceOnUse" x="-6" y="1" width="750" height="500">
<path d="M744 1H-6V501H744V1Z" fill="white"/>
</mask>
<g mask="url(#mask63_6_6)">
<path d="M25.103 280.043H14.691V290.455H25.103V280.043Z" fill="#42004C"/>
</g>
<mask id="mask64_6_6" style="mask-type:luminance" maskUnits="userSpaceOnUse" x="-6" y="1" width="750" height="500">
<path d="M744 1H-6V501H744V1Z" fill="white"/>
</mask>
<g mask="url(#mask64_6_6)">
<path d="M458.931 426.592C455.837 426.592 453.319 424.221 453.319 421.307C453.319 418.393 455.837 416.022 458.931 416.022C462.025 416.022 464.542 418.393 464.542 421.307C464.543 424.221 462.025 426.592 458.931 426.592ZM458.931 417.525C456.717 417.525 454.915 419.222 454.915 421.307C454.915 423.392 456.716 425.089 458.931 425.089C461.145 425.089 462.947 423.392 462.947 421.307C462.947 419.221 461.145 417.525 458.931 417.525Z" fill="#FFB624"/>
</g>
<mask id="mask65_6_6" style="mask-type:luminance" maskUnits="userSpaceOnUse" x="-6" y="1" width="750" height="500">
<path d="M744 1H-6V501H744V1Z" fill="white"/>
</mask>
<g mask="url(#mask65_6_6)">
<path d="M695.522 414.84C695.522 416.99 693.779 418.732 691.629 418.732C689.479 418.732 687.737 416.989 687.737 414.84C687.737 412.69 689.48 410.948 691.629 410.948C693.779 410.947 695.522 412.69 695.522 414.84Z" fill="#FFB624"/>
</g>
<mask id="mask66_6_6" style="mask-type:luminance" maskUnits="userSpaceOnUse" x="-6" y="1" width="750" height="500">
<path d="M744 1H-6V501H744V1Z" fill="white"/>
</mask>
<g mask="url(#mask66_6_6)">
<path d="M98.034 71.4159C98.034 73.5659 96.291 75.3089 94.142 75.3089C91.992 75.3089 90.25 73.5659 90.25 71.4159C90.25 69.2659 91.993 67.5229 94.142 67.5229C96.292 67.5229 98.034 69.2659 98.034 71.4159Z" fill="#42004C"/>
</g>
<path d="M566.596 92.369L557.468 83.214L548.821 91.887L540.334 83.375L532.008 91.726L521.36 81.046L524.72 77.697L532.008 85.006L540.334 76.654L548.821 85.166L557.468 76.493L566.596 85.648L576.043 76.172L585.171 85.327L592.618 77.858L595.979 81.208L585.171 92.047L576.043 82.893L566.596 92.369Z" fill="#DBDBDB"/>
<path d="M602.059 71.4921L593.004 62.4091L584.357 71.0821L575.87 62.5701L567.543 70.9211L560.256 63.6121L556.896 66.9621L567.543 77.6421L575.87 69.2901L584.357 77.8031L593.004 69.1291L602.059 78.2121V71.4921Z" fill="#DBDBDB"/>
<path d="M545.609 112.106H531.105V126.609H545.609V112.106Z" fill="#42004C"/>
</g>
<defs>
<clipPath id="clip0_6_6">
<rect width="750" height="500" fill="white"/>
</clipPath>
</defs>
</svg>
